<mxfile host="app.diagrams.net" modified="2024-06-23T15:36:33.478Z" agent="Mozilla/5.0 (Windows NT 10.0; Win64; x64) AppleWebKit/537.36 (KHTML, like Gecko) Chrome/126.0.0.0 Safari/537.36" etag="-Hu751-mEjWG7_2pNdGx" version="24.6.2" type="device">
  <diagram name="Strona-1" id="FFTAn1Aey9h0KW-IHrnl">
    <mxGraphModel dx="1075" dy="435" grid="1" gridSize="10" guides="1" tooltips="1" connect="1" arrows="1" fold="1" page="1" pageScale="1" pageWidth="827" pageHeight="1169" math="0" shadow="0">
      <root>
        <mxCell id="0" />
        <mxCell id="1" parent="0" />
        <mxCell id="s-T4bHBDybExXTd7HbpU-1" value="&lt;b&gt;package &lt;/b&gt;Presentation Diagram" style="shape=umlFrame;whiteSpace=wrap;html=1;pointerEvents=0;recursiveResize=0;container=1;collapsible=0;width=180;height=40;" parent="1" vertex="1">
          <mxGeometry x="160" y="100" width="670" height="430" as="geometry" />
        </mxCell>
        <mxCell id="s-T4bHBDybExXTd7HbpU-2" value="Bookswap home&amp;nbsp;" style="rounded=0;whiteSpace=wrap;html=1;" parent="s-T4bHBDybExXTd7HbpU-1" vertex="1">
          <mxGeometry x="40" y="80" width="180" height="20" as="geometry" />
        </mxCell>
        <mxCell id="s-T4bHBDybExXTd7HbpU-3" value="" style="rounded=0;whiteSpace=wrap;html=1;align=left;" parent="s-T4bHBDybExXTd7HbpU-1" vertex="1">
          <mxGeometry x="40" y="100" width="180" height="80" as="geometry" />
        </mxCell>
        <mxCell id="s-T4bHBDybExXTd7HbpU-7" value="Sign Up" style="rounded=0;whiteSpace=wrap;html=1;" parent="s-T4bHBDybExXTd7HbpU-1" vertex="1">
          <mxGeometry x="40" y="200" width="180" height="20" as="geometry" />
        </mxCell>
        <mxCell id="s-T4bHBDybExXTd7HbpU-8" value="" style="rounded=0;whiteSpace=wrap;html=1;align=left;" parent="s-T4bHBDybExXTd7HbpU-1" vertex="1">
          <mxGeometry x="40" y="220" width="180" height="60" as="geometry" />
        </mxCell>
        <mxCell id="s-T4bHBDybExXTd7HbpU-9" value="email:&lt;div&gt;password:&amp;nbsp; &amp;nbsp; &amp;nbsp; [2]&lt;/div&gt;&lt;div&gt;home:&amp;nbsp;&lt;/div&gt;" style="text;html=1;align=left;verticalAlign=middle;whiteSpace=wrap;rounded=0;" parent="s-T4bHBDybExXTd7HbpU-1" vertex="1">
          <mxGeometry x="57" y="210" width="146" height="80" as="geometry" />
        </mxCell>
        <mxCell id="s-T4bHBDybExXTd7HbpU-10" value="" style="group" parent="s-T4bHBDybExXTd7HbpU-1" vertex="1" connectable="0">
          <mxGeometry x="250" y="75" width="180" height="130" as="geometry" />
        </mxCell>
        <mxCell id="s-T4bHBDybExXTd7HbpU-4" value="Offer" style="rounded=0;whiteSpace=wrap;html=1;" parent="s-T4bHBDybExXTd7HbpU-10" vertex="1">
          <mxGeometry width="180" height="20" as="geometry" />
        </mxCell>
        <mxCell id="s-T4bHBDybExXTd7HbpU-5" value="" style="rounded=0;whiteSpace=wrap;html=1;align=left;" parent="s-T4bHBDybExXTd7HbpU-10" vertex="1">
          <mxGeometry y="20" width="180" height="100" as="geometry" />
        </mxCell>
        <mxCell id="s-T4bHBDybExXTd7HbpU-6" value="&lt;span style=&quot;&quot;&gt;title:&lt;/span&gt;&lt;div style=&quot;&quot;&gt;authon:&lt;/div&gt;&lt;div style=&quot;&quot;&gt;Description:&lt;/div&gt;&lt;div style=&quot;&quot;&gt;home:&lt;/div&gt;&lt;div style=&quot;&quot;&gt;exchange:&lt;/div&gt;" style="text;html=1;align=left;verticalAlign=middle;whiteSpace=wrap;rounded=0;" parent="s-T4bHBDybExXTd7HbpU-10" vertex="1">
          <mxGeometry x="17" y="10" width="146" height="120" as="geometry" />
        </mxCell>
        <mxCell id="kAr-atC4ffAKpqcUeQYJ-2" value="" style="shape=image;verticalLabelPosition=bottom;labelBackgroundColor=default;verticalAlign=top;aspect=fixed;imageAspect=0;image=data:image/png,iVBORw0KGgoAAAANSUhEUgAAABAAAAAQCAYAAAAf8/9hAAAAAXNSR0IArs4c6QAAAAlwSFlzAAALEwAACxMBAJqcGAAAAAd0SU1FB9gFAQo5Hrv56fgAAAAZdEVYdENvbW1lbnQAQ3JlYXRlZCB3aXRoIEdJTVBXgQ4XAAAEG0lEQVQ4EQEQBO/7AAAAAAAAAAAAAAAA/wAAAP8AAAD/AAAA/wAAAP8AAAD/AAAA/wAAAIkAAAAAAAAAAAAAAAAAAAAAAAAAAAAAAAAAAAAAAAAAAAAAAAD/AAAAAAAAAAAAAAAAAAAAAAAAAAAAAAD/AAAA/wAAAIkAAAAAAAAAAAAAAAAAAAAAAAAAAAQAAAAAAAAAAAAAAAAAAAAAAAAAAAAAAAAAAAAAAAAAAAAAAAAAAAABAAAA/wAAAAAAAAB3AAAAAAAAAAAAAAAABAAAAAAAAAAAAAAAAAAAAAAAAAAAAAAAAAAAAAAAAAAAAAAAAAAAAAAAAAABAAAA/wAAAAAAAAB3AAAAAAAAAAAEAAAAAAAAAAAAAAAAAAAAAAAAAAAAAAAAAAAAAAAAAAAAAAAAAAAAAAAAAAAAAAABAAAA/wAAAAAAAAB3AAAAAAQAAAAAAAAAAAAAAAAAAAAAAAAAAAAAAAAAAAAAAAAAAAAAAAAAAAAAAAAAAAAAAAAAAAABAAAA/wAAAAAAAAB3AQAAAAAAAAAAAAAA/wAAAAEAAAAAAAAAAAAAAAAAAAAAAAAA/wAAAAAAAAAAAAAAAAAAAAAAAAAAAAAAAAAAAAEAAAAAAAAAAAAAAAD/AAAAAAAAAAAAAAAAAAAAAAAAAAAAAAAAAAAAAAAAAAAAAAAAAAAAAAAAAAAAAAD/AAAAAAIAAAAAAAAAAAAAAAAAAAAAAAAAAAAAAAAAAAAAAAAAAAAAAAAAAAAAAAAAAAAAAAAAAAAAAAAAAAAAAAAAAAAAAgAAAAAAAAAAAAAAAAAAAAAAAAAAAAAAAAAAAAAAAAAAAAAAAAAAAAAAAAAAAAAAAAAAAAAAAAAAAAAAAAAAAAACAAAAAAAAAAAAAAAAAAAAAAAAAAAAAAAAAAAAAAAAAAAAAAAAAAAAAAAAAAAAAAAAAAAAAAAAAAAAAAAAAAAAAAIAAAAAAAAAAAAAAAAAAAAAAAAAAAAAAAAAAAAAAAAAAAAAAAAAAAAAAAAAAAAAAAAAAAAAAAAAAAAAAAAAAAAAAgAAAAAAAAAAAAAAAAAAAAAAAAAAAAAAAAAAAAAAAAAAAAAAAAAAAAAAAAAAAAAAAAAAAAAAAAAAAAAAAAAAAAACAAAAAAAAAAAAAAAAAAAAAAAAAAAAAAAAAAAAAAAAAAAAAAAAAAAAAAAAAAAAAAAAAAAAAAAAAAAAAAAAAAAAAAIAAAAAAAAAAAAAAAAAAAAAAAAAAAAAAAAAAAAAAAAAAAAAAAAAAAAAAAAAAAAAAAAAAAAAAAAAAAAAAAAAAAAABAAAAAAAAAAAAAAAAAAAAP8AAAAAAAAAAAAAAAAAAAAAAAAAAAAAAAAAAAAAAAAAAAAAAAAAAAAAAAAAAAAAAADPGBYFWaJh5gAAAABJRU5ErkJggg==;" vertex="1" parent="s-T4bHBDybExXTd7HbpU-10">
          <mxGeometry x="147" y="2" width="16" height="16" as="geometry" />
        </mxCell>
        <mxCell id="kAr-atC4ffAKpqcUeQYJ-19" value="" style="shape=image;verticalLabelPosition=bottom;labelBackgroundColor=default;verticalAlign=top;aspect=fixed;imageAspect=0;image=data:image/png,iVBORw0KGgoAAAANSUhEUgAAABAAAAAQCAYAAAAf8/9hAAAAAXNSR0IArs4c6QAAAAlwSFlzAAALEwAACxMBAJqcGAAAAAd0SU1FB9gFAQsTAC9fcoQAAAAZdEVYdENvbW1lbnQAQ3JlYXRlZCB3aXRoIEdJTVBXgQ4XAAAEG0lEQVQ4EQEQBO/7AAAAAAAAAAAAAAAAAAAAAAAAAAAAAAAAAgAAAFEAAAAAAAAAAAAAAAAAAAAAAAAAAAAAAAAAAAAAAAAAAAAAAAAAAAAAAAAAAAAAAAAAAAAAGgAAAGYAAAD/AAAA/wAAAP8AAAAaAAAAAAAAAAAAAAAAAAAAAAAAAAAAAABEAAAAIwAAAAAAAAAAAAAAAE0AAAD/AAAA/wAAANMAAACEAAAA/wAAAP8AAAAXAAAAAAAAAAAAAAAAAAAAMwAAAP8AAABIAAAAAAAAAAA8AAAA/wAAAP8AAAAWAAAAAAAAAAAAAAAoAAAA/wAAAP8AAAAAAAAAAAAAABQAAAD/AAAA/wAAAAsAAAAAAAAAANMAAAD/AAAAAgAAAAAAAAAAAAAAAAAAAAAAAABqAAAA/wAAAP8AAABRAAAA/wAAAP8AAAA6AAAAAAAAAAAAAAAAKwAAAFAAAAAAAAAAAQAAAAoAAABfAAAAAAAAAAAAAABjAAAA/wAAAP8AAAD/AAAANAAAAAAAAAAAAAAAAAAAAAAAAAAAAAAAABoAAABmAAAA/wAAAP8AAAD/AAAAGgAAAAAAAAAAAAAAUAAAAAAAAAAAAAAARAAAACMAAAAAAAAAAAAAAABNAAAA/wAAAP8AAADTAAAAhAAAAP8AAAD/AAAAFwAAAAAAAAAAAAAAAAAAADMAAAD/AAAASAAAAAAAAAAAPAAAAP8AAAD/AAAAFgAAAAAAAAAAAAAAKAAAAP8AAAD/AAAAAAAAAAAAAAAUAAAA/wAAAP8AAAALAAAAAAAAAADTAAAA/wAAAAIAAAAAAAAAAAAAAAAAAAAAAAAAagAAAP8AAAD/AAAAUQAAAP8AAAD/AAAAOgAAAAAAAAAAAAAAACsAAABQAAAAAAAAAAEAAAAKAAAAXwAAAAAAAAAAAAAAYwAAAP8AAAD/AAAA/wAAADQAAAAAAAAAAAAAAAAAAAAAAAAAAAAAAAAaAAAAZgAAAP8AAAD/AAAA/wAAABoAAAAAAAAAAAAAAFAAAAAAAAAAAAAAAEQAAAAjAAAAAAAAAAAAAAAATQAAAP8AAAD/AAAA0wAAAIQAAAD/AAAA/wAAABcAAAAAAAAAAAAAAAAAAAAzAAAA/wAAAEgAAAAAAAAAADwAAAD/AAAA/wAAABYAAAAAAAAAAAAAACgAAAD/AAAA/wAAAAAAAAAAAAAAFAAAAP8AAAD/AAAACwAAAAAAAAAA0wAAAP8AAAACAAAAAAAAAAAAAAAAAAAAAAAAAGoAAAD/AAAA/wAAAFEAAAD/AAAA/wAAADoAAAAAAAAAAAAAAAArAAAAUAAAAAAAAAABAAAACAAAABUAAAAAAAAAAAAAAGMAAAD/AAAA/wAAAP8AAAA0AAAAAAAAAACZCFeoko5+2QAAAABJRU5ErkJggg==;" vertex="1" parent="s-T4bHBDybExXTd7HbpU-10">
          <mxGeometry x="50" y="35" width="16" height="16" as="geometry" />
        </mxCell>
        <mxCell id="kAr-atC4ffAKpqcUeQYJ-20" value="" style="shape=image;verticalLabelPosition=bottom;labelBackgroundColor=default;verticalAlign=top;aspect=fixed;imageAspect=0;image=data:image/png,iVBORw0KGgoAAAANSUhEUgAAABAAAAAQCAYAAAAf8/9hAAAAAXNSR0IArs4c6QAAAAlwSFlzAAALEwAACxMBAJqcGAAAAAd0SU1FB9gFAQsTAC9fcoQAAAAZdEVYdENvbW1lbnQAQ3JlYXRlZCB3aXRoIEdJTVBXgQ4XAAAEG0lEQVQ4EQEQBO/7AAAAAAAAAAAAAAAAAAAAAAAAAAAAAAAAAgAAAFEAAAAAAAAAAAAAAAAAAAAAAAAAAAAAAAAAAAAAAAAAAAAAAAAAAAAAAAAAAAAAAAAAAAAAGgAAAGYAAAD/AAAA/wAAAP8AAAAaAAAAAAAAAAAAAAAAAAAAAAAAAAAAAABEAAAAIwAAAAAAAAAAAAAAAE0AAAD/AAAA/wAAANMAAACEAAAA/wAAAP8AAAAXAAAAAAAAAAAAAAAAAAAAMwAAAP8AAABIAAAAAAAAAAA8AAAA/wAAAP8AAAAWAAAAAAAAAAAAAAAoAAAA/wAAAP8AAAAAAAAAAAAAABQAAAD/AAAA/wAAAAsAAAAAAAAAANMAAAD/AAAAAgAAAAAAAAAAAAAAAAAAAAAAAABqAAAA/wAAAP8AAABRAAAA/wAAAP8AAAA6AAAAAAAAAAAAAAAAKwAAAFAAAAAAAAAAAQAAAAoAAABfAAAAAAAAAAAAAABjAAAA/wAAAP8AAAD/AAAANAAAAAAAAAAAAAAAAAAAAAAAAAAAAAAAABoAAABmAAAA/wAAAP8AAAD/AAAAGgAAAAAAAAAAAAAAUAAAAAAAAAAAAAAARAAAACMAAAAAAAAAAAAAAABNAAAA/wAAAP8AAADTAAAAhAAAAP8AAAD/AAAAFwAAAAAAAAAAAAAAAAAAADMAAAD/AAAASAAAAAAAAAAAPAAAAP8AAAD/AAAAFgAAAAAAAAAAAAAAKAAAAP8AAAD/AAAAAAAAAAAAAAAUAAAA/wAAAP8AAAALAAAAAAAAAADTAAAA/wAAAAIAAAAAAAAAAAAAAAAAAAAAAAAAagAAAP8AAAD/AAAAUQAAAP8AAAD/AAAAOgAAAAAAAAAAAAAAACsAAABQAAAAAAAAAAEAAAAKAAAAXwAAAAAAAAAAAAAAYwAAAP8AAAD/AAAA/wAAADQAAAAAAAAAAAAAAAAAAAAAAAAAAAAAAAAaAAAAZgAAAP8AAAD/AAAA/wAAABoAAAAAAAAAAAAAAFAAAAAAAAAAAAAAAEQAAAAjAAAAAAAAAAAAAAAATQAAAP8AAAD/AAAA0wAAAIQAAAD/AAAA/wAAABcAAAAAAAAAAAAAAAAAAAAzAAAA/wAAAEgAAAAAAAAAADwAAAD/AAAA/wAAABYAAAAAAAAAAAAAACgAAAD/AAAA/wAAAAAAAAAAAAAAFAAAAP8AAAD/AAAACwAAAAAAAAAA0wAAAP8AAAACAAAAAAAAAAAAAAAAAAAAAAAAAGoAAAD/AAAA/wAAAFEAAAD/AAAA/wAAADoAAAAAAAAAAAAAAAArAAAAUAAAAAAAAAABAAAACAAAABUAAAAAAAAAAAAAAGMAAAD/AAAA/wAAAP8AAAA0AAAAAAAAAACZCFeoko5+2QAAAABJRU5ErkJggg==;" vertex="1" parent="s-T4bHBDybExXTd7HbpU-10">
          <mxGeometry x="70" y="46" width="16" height="16" as="geometry" />
        </mxCell>
        <mxCell id="kAr-atC4ffAKpqcUeQYJ-21" value="" style="shape=image;verticalLabelPosition=bottom;labelBackgroundColor=default;verticalAlign=top;aspect=fixed;imageAspect=0;image=data:image/png,iVBORw0KGgoAAAANSUhEUgAAABAAAAAQCAYAAAAf8/9hAAAAAXNSR0IArs4c6QAAAAlwSFlzAAALEwAACxMBAJqcGAAAAAd0SU1FB9gFAQsTAC9fcoQAAAAZdEVYdENvbW1lbnQAQ3JlYXRlZCB3aXRoIEdJTVBXgQ4XAAAEG0lEQVQ4EQEQBO/7AAAAAAAAAAAAAAAAAAAAAAAAAAAAAAAAAgAAAFEAAAAAAAAAAAAAAAAAAAAAAAAAAAAAAAAAAAAAAAAAAAAAAAAAAAAAAAAAAAAAAAAAAAAAGgAAAGYAAAD/AAAA/wAAAP8AAAAaAAAAAAAAAAAAAAAAAAAAAAAAAAAAAABEAAAAIwAAAAAAAAAAAAAAAE0AAAD/AAAA/wAAANMAAACEAAAA/wAAAP8AAAAXAAAAAAAAAAAAAAAAAAAAMwAAAP8AAABIAAAAAAAAAAA8AAAA/wAAAP8AAAAWAAAAAAAAAAAAAAAoAAAA/wAAAP8AAAAAAAAAAAAAABQAAAD/AAAA/wAAAAsAAAAAAAAAANMAAAD/AAAAAgAAAAAAAAAAAAAAAAAAAAAAAABqAAAA/wAAAP8AAABRAAAA/wAAAP8AAAA6AAAAAAAAAAAAAAAAKwAAAFAAAAAAAAAAAQAAAAoAAABfAAAAAAAAAAAAAABjAAAA/wAAAP8AAAD/AAAANAAAAAAAAAAAAAAAAAAAAAAAAAAAAAAAABoAAABmAAAA/wAAAP8AAAD/AAAAGgAAAAAAAAAAAAAAUAAAAAAAAAAAAAAARAAAACMAAAAAAAAAAAAAAABNAAAA/wAAAP8AAADTAAAAhAAAAP8AAAD/AAAAFwAAAAAAAAAAAAAAAAAAADMAAAD/AAAASAAAAAAAAAAAPAAAAP8AAAD/AAAAFgAAAAAAAAAAAAAAKAAAAP8AAAD/AAAAAAAAAAAAAAAUAAAA/wAAAP8AAAALAAAAAAAAAADTAAAA/wAAAAIAAAAAAAAAAAAAAAAAAAAAAAAAagAAAP8AAAD/AAAAUQAAAP8AAAD/AAAAOgAAAAAAAAAAAAAAACsAAABQAAAAAAAAAAEAAAAKAAAAXwAAAAAAAAAAAAAAYwAAAP8AAAD/AAAA/wAAADQAAAAAAAAAAAAAAAAAAAAAAAAAAAAAAAAaAAAAZgAAAP8AAAD/AAAA/wAAABoAAAAAAAAAAAAAAFAAAAAAAAAAAAAAAEQAAAAjAAAAAAAAAAAAAAAATQAAAP8AAAD/AAAA0wAAAIQAAAD/AAAA/wAAABcAAAAAAAAAAAAAAAAAAAAzAAAA/wAAAEgAAAAAAAAAADwAAAD/AAAA/wAAABYAAAAAAAAAAAAAACgAAAD/AAAA/wAAAAAAAAAAAAAAFAAAAP8AAAD/AAAACwAAAAAAAAAA0wAAAP8AAAACAAAAAAAAAAAAAAAAAAAAAAAAAGoAAAD/AAAA/wAAAFEAAAD/AAAA/wAAADoAAAAAAAAAAAAAAAArAAAAUAAAAAAAAAABAAAACAAAABUAAAAAAAAAAAAAAGMAAAD/AAAA/wAAAP8AAAA0AAAAAAAAAACZCFeoko5+2QAAAABJRU5ErkJggg==;" vertex="1" parent="s-T4bHBDybExXTd7HbpU-10">
          <mxGeometry x="90" y="62" width="16" height="16" as="geometry" />
        </mxCell>
        <mxCell id="kAr-atC4ffAKpqcUeQYJ-22" value="" style="shape=image;verticalLabelPosition=bottom;labelBackgroundColor=default;verticalAlign=top;aspect=fixed;imageAspect=0;image=data:image/png,iVBORw0KGgoAAAANSUhEUgAAABAAAAAQCAYAAAAf8/9hAAAAAXNSR0IArs4c6QAAAAlwSFlzAAALEwAACxMBAJqcGAAAAAd0SU1FB9gFAQo7H/7Iu+wAAAAZdEVYdENvbW1lbnQAQ3JlYXRlZCB3aXRoIEdJTVBXgQ4XAAAEG0lEQVQ4EQEQBO/7AAAAAAAAAAAAAAAAAAAAAAAAAAAAAAAAAAAAAAAAAAAAAAAAAAAAAAAAAAAAAAAAAAAAAAAAAAAAAAAAAAAAAAAAAAAAAAAAAAAAAAAAAAAAAAAAAAAAAAAAAAAAAAAAAAAAAAAAAAAAAAAAAAAAAAAAAAAAAAAAAAAAAAAAAAAAAAAAAAAAAAAAAAAAAAAAAAAAAAAAAAAAAAAAAAAAAAAAAAAAAAAAAAAAAAAAAAAAAAAAAAAAAAAAAAAAAAAAAAAAAAAAAAAAAAAAAAAAAAAAAAAAAAAAAAAAAAAAAAAAAAAAAAAAAAAAAAAAAAAAAAAAAAAAAAAAAAAAAAAAAAAAAAAAAAAAAAAAAAAAAAAAAAAAAAAAAAAAAAAAAAAAAAAAAAAAAAAAAAAAAAAAAAAAAAAAAAAAAAAAAAAAAAAAAAAAAAAAAAAAAAAAAAAAAAAAAAAAAAAAAAAAAAAAAAAAAAAAAAAAAAAAAAAAAAAAAAAAAAAAAAAAAAAAAAAAAAAAAAAAAAAAAAAAAAAAAAAAAAAAAAAAAAAAAAAAAAAAAAAAAAAAAAAAAAAAAAAAAAAAAAAAAAAAAAAAAAAAAAAAAAAAAAABAAAAAAAAAP8AAAAAAAAAAAAAAAAAAAAAAAAAAAAAAAAAAAAAAAAAAAAAAAAAAAAAAAAAAAAAAAAAAAAAAAAAAQIAAAAAAAAAAAAAAAAAAAAAAAAAAAAAAAAAAAAAAAAAAAAAAAAAAAAAAAAAAAAAAAAAAAAAAAAAAAAAAAAAAAAAAAAAAAAAAAAAAAAAAAAAAAAAAAAAAAAAAAAAAAAAAAAAAAAAAAAAAAAAAAAAAAAAAAAAAAAAAAAAAAAAAAAAAAAAAAAAAAAAAAAAAAAAAAAAAAAAAAAAAAAAAAAAAAAAAAAAAAAAAAAAAAAAAAAAAAAAAAAAAAAAAAAAAAAAAAAAAAAAAAAAAAAAAAAAAAAAAAAAAAAAAAAAAAAAAAAAAAAAAAAAAAAAAAAAAAAAAAAAAAAAAAAAAAAAAAAAAAAAAAAAAAAAAAAAAAAAAAAAAAAAAAAAAAAAAAAAAAAAAAAAAAAAAAAAAAAAAAAAAAAAAAAAAAAAAAAAAAAAAAAAAAAAAAAAAAAAAAAAAAAAAAAAAAAAAAAAAAAAAAAAAAAAAAAAAAAAAAAAAAAAAAAAAAAAAAAAAAAAAAAAAAAAAAAAAAAAAAAAAAAAAAAAAAAAAAAAAAAAAAAAAAAAAAAAAAAAAAAAAAAAAAAAAAAAAAAAAAAAAAAAAAAAAAAAAAAAAAAAAAAAAAAAAAAAAAAAAAAAAAAAAAAAAAAAAAAAAAAAAAAAAAAAAAAAAAAAAAAAAAAAAAAAAAAAAAAAAAAAAAAAAAAAAABLTwEEmSuN1wAAAABJRU5ErkJggg==;" vertex="1" parent="s-T4bHBDybExXTd7HbpU-10">
          <mxGeometry x="66" y="78" width="16" height="16" as="geometry" />
        </mxCell>
        <mxCell id="kAr-atC4ffAKpqcUeQYJ-23" value="" style="shape=image;verticalLabelPosition=bottom;labelBackgroundColor=default;verticalAlign=top;aspect=fixed;imageAspect=0;image=data:image/png,iVBORw0KGgoAAAANSUhEUgAAABAAAAAQCAYAAAAf8/9hAAAAAXNSR0IArs4c6QAAAAlwSFlzAAALEwAACxMBAJqcGAAAAAd0SU1FB9gFAQo7H/7Iu+wAAAAZdEVYdENvbW1lbnQAQ3JlYXRlZCB3aXRoIEdJTVBXgQ4XAAAEG0lEQVQ4EQEQBO/7AAAAAAAAAAAAAAAAAAAAAAAAAAAAAAAAAAAAAAAAAAAAAAAAAAAAAAAAAAAAAAAAAAAAAAAAAAAAAAAAAAAAAAAAAAAAAAAAAAAAAAAAAAAAAAAAAAAAAAAAAAAAAAAAAAAAAAAAAAAAAAAAAAAAAAAAAAAAAAAAAAAAAAAAAAAAAAAAAAAAAAAAAAAAAAAAAAAAAAAAAAAAAAAAAAAAAAAAAAAAAAAAAAAAAAAAAAAAAAAAAAAAAAAAAAAAAAAAAAAAAAAAAAAAAAAAAAAAAAAAAAAAAAAAAAAAAAAAAAAAAAAAAAAAAAAAAAAAAAAAAAAAAAAAAAAAAAAAAAAAAAAAAAAAAAAAAAAAAAAAAAAAAAAAAAAAAAAAAAAAAAAAAAAAAAAAAAAAAAAAAAAAAAAAAAAAAAAAAAAAAAAAAAAAAAAAAAAAAAAAAAAAAAAAAAAAAAAAAAAAAAAAAAAAAAAAAAAAAAAAAAAAAAAAAAAAAAAAAAAAAAAAAAAAAAAAAAAAAAAAAAAAAAAAAAAAAAAAAAAAAAAAAAAAAAAAAAAAAAAAAAAAAAAAAAAAAAAAAAAAAAAAAAAAAAAAAAAAAAAAAAAAAAABAAAAAAAAAP8AAAAAAAAAAAAAAAAAAAAAAAAAAAAAAAAAAAAAAAAAAAAAAAAAAAAAAAAAAAAAAAAAAAAAAAAAAQIAAAAAAAAAAAAAAAAAAAAAAAAAAAAAAAAAAAAAAAAAAAAAAAAAAAAAAAAAAAAAAAAAAAAAAAAAAAAAAAAAAAAAAAAAAAAAAAAAAAAAAAAAAAAAAAAAAAAAAAAAAAAAAAAAAAAAAAAAAAAAAAAAAAAAAAAAAAAAAAAAAAAAAAAAAAAAAAAAAAAAAAAAAAAAAAAAAAAAAAAAAAAAAAAAAAAAAAAAAAAAAAAAAAAAAAAAAAAAAAAAAAAAAAAAAAAAAAAAAAAAAAAAAAAAAAAAAAAAAAAAAAAAAAAAAAAAAAAAAAAAAAAAAAAAAAAAAAAAAAAAAAAAAAAAAAAAAAAAAAAAAAAAAAAAAAAAAAAAAAAAAAAAAAAAAAAAAAAAAAAAAAAAAAAAAAAAAAAAAAAAAAAAAAAAAAAAAAAAAAAAAAAAAAAAAAAAAAAAAAAAAAAAAAAAAAAAAAAAAAAAAAAAAAAAAAAAAAAAAAAAAAAAAAAAAAAAAAAAAAAAAAAAAAAAAAAAAAAAAAAAAAAAAAAAAAAAAAAAAAAAAAAAAAAAAAAAAAAAAAAAAAAAAAAAAAAAAAAAAAAAAAAAAAAAAAAAAAAAAAAAAAAAAAAAAAAAAAAAAAAAAAAAAAAAAAAAAAAAAAAAAAAAAAAAAAAAAAAAAAAAAAAAAAAAAAAAAAAAAAAAAAAAAAAAAABLTwEEmSuN1wAAAABJRU5ErkJggg==;" vertex="1" parent="s-T4bHBDybExXTd7HbpU-10">
          <mxGeometry x="86" y="94" width="16" height="16" as="geometry" />
        </mxCell>
        <mxCell id="s-T4bHBDybExXTd7HbpU-11" value="Sign In" style="rounded=0;whiteSpace=wrap;html=1;" parent="s-T4bHBDybExXTd7HbpU-1" vertex="1">
          <mxGeometry x="250" y="230" width="180" height="20" as="geometry" />
        </mxCell>
        <mxCell id="s-T4bHBDybExXTd7HbpU-12" value="" style="rounded=0;whiteSpace=wrap;html=1;align=left;" parent="s-T4bHBDybExXTd7HbpU-1" vertex="1">
          <mxGeometry x="250" y="250" width="180" height="60" as="geometry" />
        </mxCell>
        <mxCell id="s-T4bHBDybExXTd7HbpU-13" value="user:&lt;div&gt;password:&lt;/div&gt;&lt;div&gt;home:&lt;/div&gt;" style="text;html=1;align=left;verticalAlign=middle;whiteSpace=wrap;rounded=0;" parent="s-T4bHBDybExXTd7HbpU-1" vertex="1">
          <mxGeometry x="267" y="240" width="146" height="80" as="geometry" />
        </mxCell>
        <mxCell id="s-T4bHBDybExXTd7HbpU-16" value="Control Panel" style="rounded=0;whiteSpace=wrap;html=1;" parent="s-T4bHBDybExXTd7HbpU-1" vertex="1">
          <mxGeometry x="470" y="80" width="180" height="20" as="geometry" />
        </mxCell>
        <mxCell id="s-T4bHBDybExXTd7HbpU-17" value="" style="rounded=0;whiteSpace=wrap;html=1;align=left;" parent="s-T4bHBDybExXTd7HbpU-1" vertex="1">
          <mxGeometry x="470" y="100" width="180" height="80" as="geometry" />
        </mxCell>
        <mxCell id="s-T4bHBDybExXTd7HbpU-18" value="problems:&lt;div&gt;status:&lt;/div&gt;&lt;div&gt;activities_description:&lt;/div&gt;&lt;div&gt;home:&lt;/div&gt;" style="text;html=1;align=left;verticalAlign=middle;whiteSpace=wrap;rounded=0;" parent="s-T4bHBDybExXTd7HbpU-1" vertex="1">
          <mxGeometry x="487" y="90" width="146" height="100" as="geometry" />
        </mxCell>
        <mxCell id="d8mSQE9EaVtLB4Qx-KYL-1" value="About Us" style="rounded=0;whiteSpace=wrap;html=1;" parent="s-T4bHBDybExXTd7HbpU-1" vertex="1">
          <mxGeometry x="40" y="310" width="180" height="20" as="geometry" />
        </mxCell>
        <mxCell id="d8mSQE9EaVtLB4Qx-KYL-2" value="" style="rounded=0;whiteSpace=wrap;html=1;align=left;" parent="s-T4bHBDybExXTd7HbpU-1" vertex="1">
          <mxGeometry x="40" y="330" width="180" height="60" as="geometry" />
        </mxCell>
        <mxCell id="d8mSQE9EaVtLB4Qx-KYL-3" value="text:&lt;div&gt;home:&lt;/div&gt;" style="text;html=1;align=left;verticalAlign=middle;whiteSpace=wrap;rounded=0;" parent="s-T4bHBDybExXTd7HbpU-1" vertex="1">
          <mxGeometry x="57" y="320" width="146" height="70" as="geometry" />
        </mxCell>
        <mxCell id="d8mSQE9EaVtLB4Qx-KYL-4" value="My Profile" style="rounded=0;whiteSpace=wrap;html=1;" parent="s-T4bHBDybExXTd7HbpU-1" vertex="1">
          <mxGeometry x="460" y="220" width="180" height="20" as="geometry" />
        </mxCell>
        <mxCell id="d8mSQE9EaVtLB4Qx-KYL-5" value="" style="rounded=0;whiteSpace=wrap;html=1;align=left;" parent="s-T4bHBDybExXTd7HbpU-1" vertex="1">
          <mxGeometry x="460" y="240" width="180" height="60" as="geometry" />
        </mxCell>
        <mxCell id="d8mSQE9EaVtLB4Qx-KYL-6" value="books:&lt;div&gt;image:&lt;/div&gt;&lt;div&gt;home:&lt;/div&gt;" style="text;html=1;align=left;verticalAlign=middle;whiteSpace=wrap;rounded=0;" parent="s-T4bHBDybExXTd7HbpU-1" vertex="1">
          <mxGeometry x="477" y="230" width="146" height="80" as="geometry" />
        </mxCell>
        <mxCell id="d8mSQE9EaVtLB4Qx-KYL-7" value="Exchange" style="rounded=0;whiteSpace=wrap;html=1;" parent="s-T4bHBDybExXTd7HbpU-1" vertex="1">
          <mxGeometry x="250" y="330" width="180" height="20" as="geometry" />
        </mxCell>
        <mxCell id="d8mSQE9EaVtLB4Qx-KYL-8" value="" style="rounded=0;whiteSpace=wrap;html=1;align=left;" parent="s-T4bHBDybExXTd7HbpU-1" vertex="1">
          <mxGeometry x="250" y="350" width="180" height="60" as="geometry" />
        </mxCell>
        <mxCell id="d8mSQE9EaVtLB4Qx-KYL-9" value="text:&lt;div&gt;home:&lt;/div&gt;" style="text;html=1;align=left;verticalAlign=middle;whiteSpace=wrap;rounded=0;" parent="s-T4bHBDybExXTd7HbpU-1" vertex="1">
          <mxGeometry x="267" y="340" width="146" height="70" as="geometry" />
        </mxCell>
        <mxCell id="d8mSQE9EaVtLB4Qx-KYL-10" value="&lt;span style=&quot;&quot;&gt;about us:&lt;/span&gt;&lt;div style=&quot;&quot;&gt;sign ip:&lt;/div&gt;&lt;div style=&quot;&quot;&gt;offer:&amp;nbsp;&lt;/div&gt;&lt;div style=&quot;&quot;&gt;my profile:&lt;/div&gt;" style="text;html=1;align=left;verticalAlign=middle;whiteSpace=wrap;rounded=0;" parent="s-T4bHBDybExXTd7HbpU-1" vertex="1">
          <mxGeometry x="57" y="100" width="140" height="80" as="geometry" />
        </mxCell>
        <mxCell id="kAr-atC4ffAKpqcUeQYJ-1" value="" style="shape=image;verticalLabelPosition=bottom;labelBackgroundColor=default;verticalAlign=top;aspect=fixed;imageAspect=0;image=data:image/png,iVBORw0KGgoAAAANSUhEUgAAABAAAAAQCAYAAAAf8/9hAAAAAXNSR0IArs4c6QAAAAlwSFlzAAALEwAACxMBAJqcGAAAAAd0SU1FB9gFAQo5Hrv56fgAAAAZdEVYdENvbW1lbnQAQ3JlYXRlZCB3aXRoIEdJTVBXgQ4XAAAEG0lEQVQ4EQEQBO/7AAAAAAAAAAAAAAAA/wAAAP8AAAD/AAAA/wAAAP8AAAD/AAAA/wAAAIkAAAAAAAAAAAAAAAAAAAAAAAAAAAAAAAAAAAAAAAAAAAAAAAD/AAAAAAAAAAAAAAAAAAAAAAAAAAAAAAD/AAAA/wAAAIkAAAAAAAAAAAAAAAAAAAAAAAAAAAQAAAAAAAAAAAAAAAAAAAAAAAAAAAAAAAAAAAAAAAAAAAAAAAAAAAABAAAA/wAAAAAAAAB3AAAAAAAAAAAAAAAABAAAAAAAAAAAAAAAAAAAAAAAAAAAAAAAAAAAAAAAAAAAAAAAAAAAAAAAAAABAAAA/wAAAAAAAAB3AAAAAAAAAAAEAAAAAAAAAAAAAAAAAAAAAAAAAAAAAAAAAAAAAAAAAAAAAAAAAAAAAAAAAAAAAAABAAAA/wAAAAAAAAB3AAAAAAQAAAAAAAAAAAAAAAAAAAAAAAAAAAAAAAAAAAAAAAAAAAAAAAAAAAAAAAAAAAAAAAAAAAABAAAA/wAAAAAAAAB3AQAAAAAAAAAAAAAA/wAAAAEAAAAAAAAAAAAAAAAAAAAAAAAA/wAAAAAAAAAAAAAAAAAAAAAAAAAAAAAAAAAAAAEAAAAAAAAAAAAAAAD/AAAAAAAAAAAAAAAAAAAAAAAAAAAAAAAAAAAAAAAAAAAAAAAAAAAAAAAAAAAAAAD/AAAAAAIAAAAAAAAAAAAAAAAAAAAAAAAAAAAAAAAAAAAAAAAAAAAAAAAAAAAAAAAAAAAAAAAAAAAAAAAAAAAAAAAAAAAAAgAAAAAAAAAAAAAAAAAAAAAAAAAAAAAAAAAAAAAAAAAAAAAAAAAAAAAAAAAAAAAAAAAAAAAAAAAAAAAAAAAAAAACAAAAAAAAAAAAAAAAAAAAAAAAAAAAAAAAAAAAAAAAAAAAAAAAAAAAAAAAAAAAAAAAAAAAAAAAAAAAAAAAAAAAAAIAAAAAAAAAAAAAAAAAAAAAAAAAAAAAAAAAAAAAAAAAAAAAAAAAAAAAAAAAAAAAAAAAAAAAAAAAAAAAAAAAAAAAAgAAAAAAAAAAAAAAAAAAAAAAAAAAAAAAAAAAAAAAAAAAAAAAAAAAAAAAAAAAAAAAAAAAAAAAAAAAAAAAAAAAAAACAAAAAAAAAAAAAAAAAAAAAAAAAAAAAAAAAAAAAAAAAAAAAAAAAAAAAAAAAAAAAAAAAAAAAAAAAAAAAAAAAAAAAAIAAAAAAAAAAAAAAAAAAAAAAAAAAAAAAAAAAAAAAAAAAAAAAAAAAAAAAAAAAAAAAAAAAAAAAAAAAAAAAAAAAAAABAAAAAAAAAAAAAAAAAAAAP8AAAAAAAAAAAAAAAAAAAAAAAAAAAAAAAAAAAAAAAAAAAAAAAAAAAAAAAAAAAAAAADPGBYFWaJh5gAAAABJRU5ErkJggg==;" vertex="1" parent="s-T4bHBDybExXTd7HbpU-1">
          <mxGeometry x="187" y="82" width="16" height="16" as="geometry" />
        </mxCell>
        <mxCell id="kAr-atC4ffAKpqcUeQYJ-3" value="" style="shape=image;verticalLabelPosition=bottom;labelBackgroundColor=default;verticalAlign=top;aspect=fixed;imageAspect=0;image=data:image/png,iVBORw0KGgoAAAANSUhEUgAAABAAAAAQCAYAAAAf8/9hAAAAAXNSR0IArs4c6QAAAAlwSFlzAAALEwAACxMBAJqcGAAAAAd0SU1FB9gFAQo5Hrv56fgAAAAZdEVYdENvbW1lbnQAQ3JlYXRlZCB3aXRoIEdJTVBXgQ4XAAAEG0lEQVQ4EQEQBO/7AAAAAAAAAAAAAAAA/wAAAP8AAAD/AAAA/wAAAP8AAAD/AAAA/wAAAIkAAAAAAAAAAAAAAAAAAAAAAAAAAAAAAAAAAAAAAAAAAAAAAAD/AAAAAAAAAAAAAAAAAAAAAAAAAAAAAAD/AAAA/wAAAIkAAAAAAAAAAAAAAAAAAAAAAAAAAAQAAAAAAAAAAAAAAAAAAAAAAAAAAAAAAAAAAAAAAAAAAAAAAAAAAAABAAAA/wAAAAAAAAB3AAAAAAAAAAAAAAAABAAAAAAAAAAAAAAAAAAAAAAAAAAAAAAAAAAAAAAAAAAAAAAAAAAAAAAAAAABAAAA/wAAAAAAAAB3AAAAAAAAAAAEAAAAAAAAAAAAAAAAAAAAAAAAAAAAAAAAAAAAAAAAAAAAAAAAAAAAAAAAAAAAAAABAAAA/wAAAAAAAAB3AAAAAAQAAAAAAAAAAAAAAAAAAAAAAAAAAAAAAAAAAAAAAAAAAAAAAAAAAAAAAAAAAAAAAAAAAAABAAAA/wAAAAAAAAB3AQAAAAAAAAAAAAAA/wAAAAEAAAAAAAAAAAAAAAAAAAAAAAAA/wAAAAAAAAAAAAAAAAAAAAAAAAAAAAAAAAAAAAEAAAAAAAAAAAAAAAD/AAAAAAAAAAAAAAAAAAAAAAAAAAAAAAAAAAAAAAAAAAAAAAAAAAAAAAAAAAAAAAD/AAAAAAIAAAAAAAAAAAAAAAAAAAAAAAAAAAAAAAAAAAAAAAAAAAAAAAAAAAAAAAAAAAAAAAAAAAAAAAAAAAAAAAAAAAAAAgAAAAAAAAAAAAAAAAAAAAAAAAAAAAAAAAAAAAAAAAAAAAAAAAAAAAAAAAAAAAAAAAAAAAAAAAAAAAAAAAAAAAACAAAAAAAAAAAAAAAAAAAAAAAAAAAAAAAAAAAAAAAAAAAAAAAAAAAAAAAAAAAAAAAAAAAAAAAAAAAAAAAAAAAAAAIAAAAAAAAAAAAAAAAAAAAAAAAAAAAAAAAAAAAAAAAAAAAAAAAAAAAAAAAAAAAAAAAAAAAAAAAAAAAAAAAAAAAAAgAAAAAAAAAAAAAAAAAAAAAAAAAAAAAAAAAAAAAAAAAAAAAAAAAAAAAAAAAAAAAAAAAAAAAAAAAAAAAAAAAAAAACAAAAAAAAAAAAAAAAAAAAAAAAAAAAAAAAAAAAAAAAAAAAAAAAAAAAAAAAAAAAAAAAAAAAAAAAAAAAAAAAAAAAAAIAAAAAAAAAAAAAAAAAAAAAAAAAAAAAAAAAAAAAAAAAAAAAAAAAAAAAAAAAAAAAAAAAAAAAAAAAAAAAAAAAAAAABAAAAAAAAAAAAAAAAAAAAP8AAAAAAAAAAAAAAAAAAAAAAAAAAAAAAAAAAAAAAAAAAAAAAAAAAAAAAAAAAAAAAADPGBYFWaJh5gAAAABJRU5ErkJggg==;" vertex="1" parent="s-T4bHBDybExXTd7HbpU-1">
          <mxGeometry x="617" y="82" width="16" height="16" as="geometry" />
        </mxCell>
        <mxCell id="kAr-atC4ffAKpqcUeQYJ-4" value="" style="shape=image;verticalLabelPosition=bottom;labelBackgroundColor=default;verticalAlign=top;aspect=fixed;imageAspect=0;image=data:image/png,iVBORw0KGgoAAAANSUhEUgAAABAAAAAQCAYAAAAf8/9hAAAAAXNSR0IArs4c6QAAAAlwSFlzAAALEwAACxMBAJqcGAAAAAd0SU1FB9gFAQo5Hrv56fgAAAAZdEVYdENvbW1lbnQAQ3JlYXRlZCB3aXRoIEdJTVBXgQ4XAAAEG0lEQVQ4EQEQBO/7AAAAAAAAAAAAAAAA/wAAAP8AAAD/AAAA/wAAAP8AAAD/AAAA/wAAAIkAAAAAAAAAAAAAAAAAAAAAAAAAAAAAAAAAAAAAAAAAAAAAAAD/AAAAAAAAAAAAAAAAAAAAAAAAAAAAAAD/AAAA/wAAAIkAAAAAAAAAAAAAAAAAAAAAAAAAAAQAAAAAAAAAAAAAAAAAAAAAAAAAAAAAAAAAAAAAAAAAAAAAAAAAAAABAAAA/wAAAAAAAAB3AAAAAAAAAAAAAAAABAAAAAAAAAAAAAAAAAAAAAAAAAAAAAAAAAAAAAAAAAAAAAAAAAAAAAAAAAABAAAA/wAAAAAAAAB3AAAAAAAAAAAEAAAAAAAAAAAAAAAAAAAAAAAAAAAAAAAAAAAAAAAAAAAAAAAAAAAAAAAAAAAAAAABAAAA/wAAAAAAAAB3AAAAAAQAAAAAAAAAAAAAAAAAAAAAAAAAAAAAAAAAAAAAAAAAAAAAAAAAAAAAAAAAAAAAAAAAAAABAAAA/wAAAAAAAAB3AQAAAAAAAAAAAAAA/wAAAAEAAAAAAAAAAAAAAAAAAAAAAAAA/wAAAAAAAAAAAAAAAAAAAAAAAAAAAAAAAAAAAAEAAAAAAAAAAAAAAAD/AAAAAAAAAAAAAAAAAAAAAAAAAAAAAAAAAAAAAAAAAAAAAAAAAAAAAAAAAAAAAAD/AAAAAAIAAAAAAAAAAAAAAAAAAAAAAAAAAAAAAAAAAAAAAAAAAAAAAAAAAAAAAAAAAAAAAAAAAAAAAAAAAAAAAAAAAAAAAgAAAAAAAAAAAAAAAAAAAAAAAAAAAAAAAAAAAAAAAAAAAAAAAAAAAAAAAAAAAAAAAAAAAAAAAAAAAAAAAAAAAAACAAAAAAAAAAAAAAAAAAAAAAAAAAAAAAAAAAAAAAAAAAAAAAAAAAAAAAAAAAAAAAAAAAAAAAAAAAAAAAAAAAAAAAIAAAAAAAAAAAAAAAAAAAAAAAAAAAAAAAAAAAAAAAAAAAAAAAAAAAAAAAAAAAAAAAAAAAAAAAAAAAAAAAAAAAAAAgAAAAAAAAAAAAAAAAAAAAAAAAAAAAAAAAAAAAAAAAAAAAAAAAAAAAAAAAAAAAAAAAAAAAAAAAAAAAAAAAAAAAACAAAAAAAAAAAAAAAAAAAAAAAAAAAAAAAAAAAAAAAAAAAAAAAAAAAAAAAAAAAAAAAAAAAAAAAAAAAAAAAAAAAAAAIAAAAAAAAAAAAAAAAAAAAAAAAAAAAAAAAAAAAAAAAAAAAAAAAAAAAAAAAAAAAAAAAAAAAAAAAAAAAAAAAAAAAABAAAAAAAAAAAAAAAAAAAAP8AAAAAAAAAAAAAAAAAAAAAAAAAAAAAAAAAAAAAAAAAAAAAAAAAAAAAAAAAAAAAAADPGBYFWaJh5gAAAABJRU5ErkJggg==;" vertex="1" parent="s-T4bHBDybExXTd7HbpU-1">
          <mxGeometry x="607" y="222" width="16" height="16" as="geometry" />
        </mxCell>
        <mxCell id="kAr-atC4ffAKpqcUeQYJ-5" value="" style="shape=image;verticalLabelPosition=bottom;labelBackgroundColor=default;verticalAlign=top;aspect=fixed;imageAspect=0;image=data:image/png,iVBORw0KGgoAAAANSUhEUgAAABAAAAAQCAYAAAAf8/9hAAAAAXNSR0IArs4c6QAAAAlwSFlzAAALEwAACxMBAJqcGAAAAAd0SU1FB9gFAQo5Hrv56fgAAAAZdEVYdENvbW1lbnQAQ3JlYXRlZCB3aXRoIEdJTVBXgQ4XAAAEG0lEQVQ4EQEQBO/7AAAAAAAAAAAAAAAA/wAAAP8AAAD/AAAA/wAAAP8AAAD/AAAA/wAAAIkAAAAAAAAAAAAAAAAAAAAAAAAAAAAAAAAAAAAAAAAAAAAAAAD/AAAAAAAAAAAAAAAAAAAAAAAAAAAAAAD/AAAA/wAAAIkAAAAAAAAAAAAAAAAAAAAAAAAAAAQAAAAAAAAAAAAAAAAAAAAAAAAAAAAAAAAAAAAAAAAAAAAAAAAAAAABAAAA/wAAAAAAAAB3AAAAAAAAAAAAAAAABAAAAAAAAAAAAAAAAAAAAAAAAAAAAAAAAAAAAAAAAAAAAAAAAAAAAAAAAAABAAAA/wAAAAAAAAB3AAAAAAAAAAAEAAAAAAAAAAAAAAAAAAAAAAAAAAAAAAAAAAAAAAAAAAAAAAAAAAAAAAAAAAAAAAABAAAA/wAAAAAAAAB3AAAAAAQAAAAAAAAAAAAAAAAAAAAAAAAAAAAAAAAAAAAAAAAAAAAAAAAAAAAAAAAAAAAAAAAAAAABAAAA/wAAAAAAAAB3AQAAAAAAAAAAAAAA/wAAAAEAAAAAAAAAAAAAAAAAAAAAAAAA/wAAAAAAAAAAAAAAAAAAAAAAAAAAAAAAAAAAAAEAAAAAAAAAAAAAAAD/AAAAAAAAAAAAAAAAAAAAAAAAAAAAAAAAAAAAAAAAAAAAAAAAAAAAAAAAAAAAAAD/AAAAAAIAAAAAAAAAAAAAAAAAAAAAAAAAAAAAAAAAAAAAAAAAAAAAAAAAAAAAAAAAAAAAAAAAAAAAAAAAAAAAAAAAAAAAAgAAAAAAAAAAAAAAAAAAAAAAAAAAAAAAAAAAAAAAAAAAAAAAAAAAAAAAAAAAAAAAAAAAAAAAAAAAAAAAAAAAAAACAAAAAAAAAAAAAAAAAAAAAAAAAAAAAAAAAAAAAAAAAAAAAAAAAAAAAAAAAAAAAAAAAAAAAAAAAAAAAAAAAAAAAAIAAAAAAAAAAAAAAAAAAAAAAAAAAAAAAAAAAAAAAAAAAAAAAAAAAAAAAAAAAAAAAAAAAAAAAAAAAAAAAAAAAAAAAgAAAAAAAAAAAAAAAAAAAAAAAAAAAAAAAAAAAAAAAAAAAAAAAAAAAAAAAAAAAAAAAAAAAAAAAAAAAAAAAAAAAAACAAAAAAAAAAAAAAAAAAAAAAAAAAAAAAAAAAAAAAAAAAAAAAAAAAAAAAAAAAAAAAAAAAAAAAAAAAAAAAAAAAAAAAIAAAAAAAAAAAAAAAAAAAAAAAAAAAAAAAAAAAAAAAAAAAAAAAAAAAAAAAAAAAAAAAAAAAAAAAAAAAAAAAAAAAAABAAAAAAAAAAAAAAAAAAAAP8AAAAAAAAAAAAAAAAAAAAAAAAAAAAAAAAAAAAAAAAAAAAAAAAAAAAAAAAAAAAAAADPGBYFWaJh5gAAAABJRU5ErkJggg==;" vertex="1" parent="s-T4bHBDybExXTd7HbpU-1">
          <mxGeometry x="181" y="202" width="16" height="16" as="geometry" />
        </mxCell>
        <mxCell id="kAr-atC4ffAKpqcUeQYJ-6" value="" style="shape=image;verticalLabelPosition=bottom;labelBackgroundColor=default;verticalAlign=top;aspect=fixed;imageAspect=0;image=data:image/png,iVBORw0KGgoAAAANSUhEUgAAABAAAAAQCAYAAAAf8/9hAAAAAXNSR0IArs4c6QAAAAlwSFlzAAALEwAACxMBAJqcGAAAAAd0SU1FB9gFAQo5Hrv56fgAAAAZdEVYdENvbW1lbnQAQ3JlYXRlZCB3aXRoIEdJTVBXgQ4XAAAEG0lEQVQ4EQEQBO/7AAAAAAAAAAAAAAAA/wAAAP8AAAD/AAAA/wAAAP8AAAD/AAAA/wAAAIkAAAAAAAAAAAAAAAAAAAAAAAAAAAAAAAAAAAAAAAAAAAAAAAD/AAAAAAAAAAAAAAAAAAAAAAAAAAAAAAD/AAAA/wAAAIkAAAAAAAAAAAAAAAAAAAAAAAAAAAQAAAAAAAAAAAAAAAAAAAAAAAAAAAAAAAAAAAAAAAAAAAAAAAAAAAABAAAA/wAAAAAAAAB3AAAAAAAAAAAAAAAABAAAAAAAAAAAAAAAAAAAAAAAAAAAAAAAAAAAAAAAAAAAAAAAAAAAAAAAAAABAAAA/wAAAAAAAAB3AAAAAAAAAAAEAAAAAAAAAAAAAAAAAAAAAAAAAAAAAAAAAAAAAAAAAAAAAAAAAAAAAAAAAAAAAAABAAAA/wAAAAAAAAB3AAAAAAQAAAAAAAAAAAAAAAAAAAAAAAAAAAAAAAAAAAAAAAAAAAAAAAAAAAAAAAAAAAAAAAAAAAABAAAA/wAAAAAAAAB3AQAAAAAAAAAAAAAA/wAAAAEAAAAAAAAAAAAAAAAAAAAAAAAA/wAAAAAAAAAAAAAAAAAAAAAAAAAAAAAAAAAAAAEAAAAAAAAAAAAAAAD/AAAAAAAAAAAAAAAAAAAAAAAAAAAAAAAAAAAAAAAAAAAAAAAAAAAAAAAAAAAAAAD/AAAAAAIAAAAAAAAAAAAAAAAAAAAAAAAAAAAAAAAAAAAAAAAAAAAAAAAAAAAAAAAAAAAAAAAAAAAAAAAAAAAAAAAAAAAAAgAAAAAAAAAAAAAAAAAAAAAAAAAAAAAAAAAAAAAAAAAAAAAAAAAAAAAAAAAAAAAAAAAAAAAAAAAAAAAAAAAAAAACAAAAAAAAAAAAAAAAAAAAAAAAAAAAAAAAAAAAAAAAAAAAAAAAAAAAAAAAAAAAAAAAAAAAAAAAAAAAAAAAAAAAAAIAAAAAAAAAAAAAAAAAAAAAAAAAAAAAAAAAAAAAAAAAAAAAAAAAAAAAAAAAAAAAAAAAAAAAAAAAAAAAAAAAAAAAAgAAAAAAAAAAAAAAAAAAAAAAAAAAAAAAAAAAAAAAAAAAAAAAAAAAAAAAAAAAAAAAAAAAAAAAAAAAAAAAAAAAAAACAAAAAAAAAAAAAAAAAAAAAAAAAAAAAAAAAAAAAAAAAAAAAAAAAAAAAAAAAAAAAAAAAAAAAAAAAAAAAAAAAAAAAAIAAAAAAAAAAAAAAAAAAAAAAAAAAAAAAAAAAAAAAAAAAAAAAAAAAAAAAAAAAAAAAAAAAAAAAAAAAAAAAAAAAAAABAAAAAAAAAAAAAAAAAAAAP8AAAAAAAAAAAAAAAAAAAAAAAAAAAAAAAAAAAAAAAAAAAAAAAAAAAAAAAAAAAAAAADPGBYFWaJh5gAAAABJRU5ErkJggg==;" vertex="1" parent="s-T4bHBDybExXTd7HbpU-1">
          <mxGeometry x="181" y="312" width="16" height="16" as="geometry" />
        </mxCell>
        <mxCell id="kAr-atC4ffAKpqcUeQYJ-7" value="" style="shape=image;verticalLabelPosition=bottom;labelBackgroundColor=default;verticalAlign=top;aspect=fixed;imageAspect=0;image=data:image/png,iVBORw0KGgoAAAANSUhEUgAAABAAAAAQCAYAAAAf8/9hAAAAAXNSR0IArs4c6QAAAAlwSFlzAAALEwAACxMBAJqcGAAAAAd0SU1FB9gFAQo5Hrv56fgAAAAZdEVYdENvbW1lbnQAQ3JlYXRlZCB3aXRoIEdJTVBXgQ4XAAAEG0lEQVQ4EQEQBO/7AAAAAAAAAAAAAAAA/wAAAP8AAAD/AAAA/wAAAP8AAAD/AAAA/wAAAIkAAAAAAAAAAAAAAAAAAAAAAAAAAAAAAAAAAAAAAAAAAAAAAAD/AAAAAAAAAAAAAAAAAAAAAAAAAAAAAAD/AAAA/wAAAIkAAAAAAAAAAAAAAAAAAAAAAAAAAAQAAAAAAAAAAAAAAAAAAAAAAAAAAAAAAAAAAAAAAAAAAAAAAAAAAAABAAAA/wAAAAAAAAB3AAAAAAAAAAAAAAAABAAAAAAAAAAAAAAAAAAAAAAAAAAAAAAAAAAAAAAAAAAAAAAAAAAAAAAAAAABAAAA/wAAAAAAAAB3AAAAAAAAAAAEAAAAAAAAAAAAAAAAAAAAAAAAAAAAAAAAAAAAAAAAAAAAAAAAAAAAAAAAAAAAAAABAAAA/wAAAAAAAAB3AAAAAAQAAAAAAAAAAAAAAAAAAAAAAAAAAAAAAAAAAAAAAAAAAAAAAAAAAAAAAAAAAAAAAAAAAAABAAAA/wAAAAAAAAB3AQAAAAAAAAAAAAAA/wAAAAEAAAAAAAAAAAAAAAAAAAAAAAAA/wAAAAAAAAAAAAAAAAAAAAAAAAAAAAAAAAAAAAEAAAAAAAAAAAAAAAD/AAAAAAAAAAAAAAAAAAAAAAAAAAAAAAAAAAAAAAAAAAAAAAAAAAAAAAAAAAAAAAD/AAAAAAIAAAAAAAAAAAAAAAAAAAAAAAAAAAAAAAAAAAAAAAAAAAAAAAAAAAAAAAAAAAAAAAAAAAAAAAAAAAAAAAAAAAAAAgAAAAAAAAAAAAAAAAAAAAAAAAAAAAAAAAAAAAAAAAAAAAAAAAAAAAAAAAAAAAAAAAAAAAAAAAAAAAAAAAAAAAACAAAAAAAAAAAAAAAAAAAAAAAAAAAAAAAAAAAAAAAAAAAAAAAAAAAAAAAAAAAAAAAAAAAAAAAAAAAAAAAAAAAAAAIAAAAAAAAAAAAAAAAAAAAAAAAAAAAAAAAAAAAAAAAAAAAAAAAAAAAAAAAAAAAAAAAAAAAAAAAAAAAAAAAAAAAAAgAAAAAAAAAAAAAAAAAAAAAAAAAAAAAAAAAAAAAAAAAAAAAAAAAAAAAAAAAAAAAAAAAAAAAAAAAAAAAAAAAAAAACAAAAAAAAAAAAAAAAAAAAAAAAAAAAAAAAAAAAAAAAAAAAAAAAAAAAAAAAAAAAAAAAAAAAAAAAAAAAAAAAAAAAAAIAAAAAAAAAAAAAAAAAAAAAAAAAAAAAAAAAAAAAAAAAAAAAAAAAAAAAAAAAAAAAAAAAAAAAAAAAAAAAAAAAAAAABAAAAAAAAAAAAAAAAAAAAP8AAAAAAAAAAAAAAAAAAAAAAAAAAAAAAAAAAAAAAAAAAAAAAAAAAAAAAAAAAAAAAADPGBYFWaJh5gAAAABJRU5ErkJggg==;" vertex="1" parent="s-T4bHBDybExXTd7HbpU-1">
          <mxGeometry x="397" y="232" width="16" height="16" as="geometry" />
        </mxCell>
        <mxCell id="kAr-atC4ffAKpqcUeQYJ-8" value="" style="shape=image;verticalLabelPosition=bottom;labelBackgroundColor=default;verticalAlign=top;aspect=fixed;imageAspect=0;image=data:image/png,iVBORw0KGgoAAAANSUhEUgAAABAAAAAQCAYAAAAf8/9hAAAAAXNSR0IArs4c6QAAAAlwSFlzAAALEwAACxMBAJqcGAAAAAd0SU1FB9gFAQo5Hrv56fgAAAAZdEVYdENvbW1lbnQAQ3JlYXRlZCB3aXRoIEdJTVBXgQ4XAAAEG0lEQVQ4EQEQBO/7AAAAAAAAAAAAAAAA/wAAAP8AAAD/AAAA/wAAAP8AAAD/AAAA/wAAAIkAAAAAAAAAAAAAAAAAAAAAAAAAAAAAAAAAAAAAAAAAAAAAAAD/AAAAAAAAAAAAAAAAAAAAAAAAAAAAAAD/AAAA/wAAAIkAAAAAAAAAAAAAAAAAAAAAAAAAAAQAAAAAAAAAAAAAAAAAAAAAAAAAAAAAAAAAAAAAAAAAAAAAAAAAAAABAAAA/wAAAAAAAAB3AAAAAAAAAAAAAAAABAAAAAAAAAAAAAAAAAAAAAAAAAAAAAAAAAAAAAAAAAAAAAAAAAAAAAAAAAABAAAA/wAAAAAAAAB3AAAAAAAAAAAEAAAAAAAAAAAAAAAAAAAAAAAAAAAAAAAAAAAAAAAAAAAAAAAAAAAAAAAAAAAAAAABAAAA/wAAAAAAAAB3AAAAAAQAAAAAAAAAAAAAAAAAAAAAAAAAAAAAAAAAAAAAAAAAAAAAAAAAAAAAAAAAAAAAAAAAAAABAAAA/wAAAAAAAAB3AQAAAAAAAAAAAAAA/wAAAAEAAAAAAAAAAAAAAAAAAAAAAAAA/wAAAAAAAAAAAAAAAAAAAAAAAAAAAAAAAAAAAAEAAAAAAAAAAAAAAAD/AAAAAAAAAAAAAAAAAAAAAAAAAAAAAAAAAAAAAAAAAAAAAAAAAAAAAAAAAAAAAAD/AAAAAAIAAAAAAAAAAAAAAAAAAAAAAAAAAAAAAAAAAAAAAAAAAAAAAAAAAAAAAAAAAAAAAAAAAAAAAAAAAAAAAAAAAAAAAgAAAAAAAAAAAAAAAAAAAAAAAAAAAAAAAAAAAAAAAAAAAAAAAAAAAAAAAAAAAAAAAAAAAAAAAAAAAAAAAAAAAAACAAAAAAAAAAAAAAAAAAAAAAAAAAAAAAAAAAAAAAAAAAAAAAAAAAAAAAAAAAAAAAAAAAAAAAAAAAAAAAAAAAAAAAIAAAAAAAAAAAAAAAAAAAAAAAAAAAAAAAAAAAAAAAAAAAAAAAAAAAAAAAAAAAAAAAAAAAAAAAAAAAAAAAAAAAAAAgAAAAAAAAAAAAAAAAAAAAAAAAAAAAAAAAAAAAAAAAAAAAAAAAAAAAAAAAAAAAAAAAAAAAAAAAAAAAAAAAAAAAACAAAAAAAAAAAAAAAAAAAAAAAAAAAAAAAAAAAAAAAAAAAAAAAAAAAAAAAAAAAAAAAAAAAAAAAAAAAAAAAAAAAAAAIAAAAAAAAAAAAAAAAAAAAAAAAAAAAAAAAAAAAAAAAAAAAAAAAAAAAAAAAAAAAAAAAAAAAAAAAAAAAAAAAAAAAABAAAAAAAAAAAAAAAAAAAAP8AAAAAAAAAAAAAAAAAAAAAAAAAAAAAAAAAAAAAAAAAAAAAAAAAAAAAAAAAAAAAAADPGBYFWaJh5gAAAABJRU5ErkJggg==;" vertex="1" parent="s-T4bHBDybExXTd7HbpU-1">
          <mxGeometry x="397" y="332" width="16" height="16" as="geometry" />
        </mxCell>
        <mxCell id="kAr-atC4ffAKpqcUeQYJ-9" value="" style="shape=image;verticalLabelPosition=bottom;labelBackgroundColor=default;verticalAlign=top;aspect=fixed;imageAspect=0;image=data:image/png,iVBORw0KGgoAAAANSUhEUgAAABAAAAAQCAYAAAAf8/9hAAAABGdBTUEAALGPC/xhBQAAAAlwSFlzAAALEwAACxMBAJqcGAAAAAd0SU1FB9kJGhUAC0Zuit4AAAAZdEVYdENvbW1lbnQAQ3JlYXRlZCB3aXRoIEdJTVBXgQ4XAAAAaUlEQVQ4y2NkQIDNDKjAl4EEsBmKjaF4MxYDsQJGJIUNaHIwPl6XMOHQjEsMpwFkA1xeOENAD4oLfLEYAFOIjDE0owsgh7oPmtx/bJrxgf9EihE04D+5hvyn1BBCmkjyzuA1hCzNGDYDAAgMHvxESHcbAAAAAElFTkSuQmCC;" vertex="1" parent="s-T4bHBDybExXTd7HbpU-1">
          <mxGeometry x="536" y="126" width="16" height="16" as="geometry" />
        </mxCell>
        <mxCell id="kAr-atC4ffAKpqcUeQYJ-13" value="" style="shape=image;verticalLabelPosition=bottom;labelBackgroundColor=default;verticalAlign=top;aspect=fixed;imageAspect=0;image=data:image/png,iVBORw0KGgoAAAANSUhEUgAAABAAAAAQCAYAAAAf8/9hAAAAAXNSR0IArs4c6QAAAAlwSFlzAAALEwAACxMBAJqcGAAAAAd0SU1FB9gFAQo7H/7Iu+wAAAAZdEVYdENvbW1lbnQAQ3JlYXRlZCB3aXRoIEdJTVBXgQ4XAAAEG0lEQVQ4EQEQBO/7AAAAAAAAAAAAAAAAAAAAAAAAAAAAAAAAAAAAAAAAAAAAAAAAAAAAAAAAAAAAAAAAAAAAAAAAAAAAAAAAAAAAAAAAAAAAAAAAAAAAAAAAAAAAAAAAAAAAAAAAAAAAAAAAAAAAAAAAAAAAAAAAAAAAAAAAAAAAAAAAAAAAAAAAAAAAAAAAAAAAAAAAAAAAAAAAAAAAAAAAAAAAAAAAAAAAAAAAAAAAAAAAAAAAAAAAAAAAAAAAAAAAAAAAAAAAAAAAAAAAAAAAAAAAAAAAAAAAAAAAAAAAAAAAAAAAAAAAAAAAAAAAAAAAAAAAAAAAAAAAAAAAAAAAAAAAAAAAAAAAAAAAAAAAAAAAAAAAAAAAAAAAAAAAAAAAAAAAAAAAAAAAAAAAAAAAAAAAAAAAAAAAAAAAAAAAAAAAAAAAAAAAAAAAAAAAAAAAAAAAAAAAAAAAAAAAAAAAAAAAAAAAAAAAAAAAAAAAAAAAAAAAAAAAAAAAAAAAAAAAAAAAAAAAAAAAAAAAAAAAAAAAAAAAAAAAAAAAAAAAAAAAAAAAAAAAAAAAAAAAAAAAAAAAAAAAAAAAAAAAAAAAAAAAAAAAAAAAAAAAAAAAAAABAAAAAAAAAP8AAAAAAAAAAAAAAAAAAAAAAAAAAAAAAAAAAAAAAAAAAAAAAAAAAAAAAAAAAAAAAAAAAAAAAAAAAQIAAAAAAAAAAAAAAAAAAAAAAAAAAAAAAAAAAAAAAAAAAAAAAAAAAAAAAAAAAAAAAAAAAAAAAAAAAAAAAAAAAAAAAAAAAAAAAAAAAAAAAAAAAAAAAAAAAAAAAAAAAAAAAAAAAAAAAAAAAAAAAAAAAAAAAAAAAAAAAAAAAAAAAAAAAAAAAAAAAAAAAAAAAAAAAAAAAAAAAAAAAAAAAAAAAAAAAAAAAAAAAAAAAAAAAAAAAAAAAAAAAAAAAAAAAAAAAAAAAAAAAAAAAAAAAAAAAAAAAAAAAAAAAAAAAAAAAAAAAAAAAAAAAAAAAAAAAAAAAAAAAAAAAAAAAAAAAAAAAAAAAAAAAAAAAAAAAAAAAAAAAAAAAAAAAAAAAAAAAAAAAAAAAAAAAAAAAAAAAAAAAAAAAAAAAAAAAAAAAAAAAAAAAAAAAAAAAAAAAAAAAAAAAAAAAAAAAAAAAAAAAAAAAAAAAAAAAAAAAAAAAAAAAAAAAAAAAAAAAAAAAAAAAAAAAAAAAAAAAAAAAAAAAAAAAAAAAAAAAAAAAAAAAAAAAAAAAAAAAAAAAAAAAAAAAAAAAAAAAAAAAAAAAAAAAAAAAAAAAAAAAAAAAAAAAAAAAAAAAAAAAAAAAAAAAAAAAAAAAAAAAAAAAAAAAAAAAAAAAAAAAAAAAAAAAAAAAAAAAAAAAAAAAAAAAABLTwEEmSuN1wAAAABJRU5ErkJggg==;" vertex="1" parent="s-T4bHBDybExXTd7HbpU-1">
          <mxGeometry x="119" y="110" width="16" height="16" as="geometry" />
        </mxCell>
        <mxCell id="kAr-atC4ffAKpqcUeQYJ-14" value="" style="shape=image;verticalLabelPosition=bottom;labelBackgroundColor=default;verticalAlign=top;aspect=fixed;imageAspect=0;image=data:image/png,iVBORw0KGgoAAAANSUhEUgAAABAAAAAQCAYAAAAf8/9hAAAAAXNSR0IArs4c6QAAAAlwSFlzAAALEwAACxMBAJqcGAAAAAd0SU1FB9gFAQo7H/7Iu+wAAAAZdEVYdENvbW1lbnQAQ3JlYXRlZCB3aXRoIEdJTVBXgQ4XAAAEG0lEQVQ4EQEQBO/7AAAAAAAAAAAAAAAAAAAAAAAAAAAAAAAAAAAAAAAAAAAAAAAAAAAAAAAAAAAAAAAAAAAAAAAAAAAAAAAAAAAAAAAAAAAAAAAAAAAAAAAAAAAAAAAAAAAAAAAAAAAAAAAAAAAAAAAAAAAAAAAAAAAAAAAAAAAAAAAAAAAAAAAAAAAAAAAAAAAAAAAAAAAAAAAAAAAAAAAAAAAAAAAAAAAAAAAAAAAAAAAAAAAAAAAAAAAAAAAAAAAAAAAAAAAAAAAAAAAAAAAAAAAAAAAAAAAAAAAAAAAAAAAAAAAAAAAAAAAAAAAAAAAAAAAAAAAAAAAAAAAAAAAAAAAAAAAAAAAAAAAAAAAAAAAAAAAAAAAAAAAAAAAAAAAAAAAAAAAAAAAAAAAAAAAAAAAAAAAAAAAAAAAAAAAAAAAAAAAAAAAAAAAAAAAAAAAAAAAAAAAAAAAAAAAAAAAAAAAAAAAAAAAAAAAAAAAAAAAAAAAAAAAAAAAAAAAAAAAAAAAAAAAAAAAAAAAAAAAAAAAAAAAAAAAAAAAAAAAAAAAAAAAAAAAAAAAAAAAAAAAAAAAAAAAAAAAAAAAAAAAAAAAAAAAAAAAAAAAAAAAAAAABAAAAAAAAAP8AAAAAAAAAAAAAAAAAAAAAAAAAAAAAAAAAAAAAAAAAAAAAAAAAAAAAAAAAAAAAAAAAAAAAAAAAAQIAAAAAAAAAAAAAAAAAAAAAAAAAAAAAAAAAAAAAAAAAAAAAAAAAAAAAAAAAAAAAAAAAAAAAAAAAAAAAAAAAAAAAAAAAAAAAAAAAAAAAAAAAAAAAAAAAAAAAAAAAAAAAAAAAAAAAAAAAAAAAAAAAAAAAAAAAAAAAAAAAAAAAAAAAAAAAAAAAAAAAAAAAAAAAAAAAAAAAAAAAAAAAAAAAAAAAAAAAAAAAAAAAAAAAAAAAAAAAAAAAAAAAAAAAAAAAAAAAAAAAAAAAAAAAAAAAAAAAAAAAAAAAAAAAAAAAAAAAAAAAAAAAAAAAAAAAAAAAAAAAAAAAAAAAAAAAAAAAAAAAAAAAAAAAAAAAAAAAAAAAAAAAAAAAAAAAAAAAAAAAAAAAAAAAAAAAAAAAAAAAAAAAAAAAAAAAAAAAAAAAAAAAAAAAAAAAAAAAAAAAAAAAAAAAAAAAAAAAAAAAAAAAAAAAAAAAAAAAAAAAAAAAAAAAAAAAAAAAAAAAAAAAAAAAAAAAAAAAAAAAAAAAAAAAAAAAAAAAAAAAAAAAAAAAAAAAAAAAAAAAAAAAAAAAAAAAAAAAAAAAAAAAAAAAAAAAAAAAAAAAAAAAAAAAAAAAAAAAAAAAAAAAAAAAAAAAAAAAAAAAAAAAAAAAAAAAAAAAAAAAAAAAAAAAAAAAAAAAAAAAAAAAAAAAAABLTwEEmSuN1wAAAABJRU5ErkJggg==;" vertex="1" parent="s-T4bHBDybExXTd7HbpU-1">
          <mxGeometry x="119" y="126" width="16" height="16" as="geometry" />
        </mxCell>
        <mxCell id="kAr-atC4ffAKpqcUeQYJ-15" value="" style="shape=image;verticalLabelPosition=bottom;labelBackgroundColor=default;verticalAlign=top;aspect=fixed;imageAspect=0;image=data:image/png,iVBORw0KGgoAAAANSUhEUgAAABAAAAAQCAYAAAAf8/9hAAAAAXNSR0IArs4c6QAAAAlwSFlzAAALEwAACxMBAJqcGAAAAAd0SU1FB9gFAQo7H/7Iu+wAAAAZdEVYdENvbW1lbnQAQ3JlYXRlZCB3aXRoIEdJTVBXgQ4XAAAEG0lEQVQ4EQEQBO/7AAAAAAAAAAAAAAAAAAAAAAAAAAAAAAAAAAAAAAAAAAAAAAAAAAAAAAAAAAAAAAAAAAAAAAAAAAAAAAAAAAAAAAAAAAAAAAAAAAAAAAAAAAAAAAAAAAAAAAAAAAAAAAAAAAAAAAAAAAAAAAAAAAAAAAAAAAAAAAAAAAAAAAAAAAAAAAAAAAAAAAAAAAAAAAAAAAAAAAAAAAAAAAAAAAAAAAAAAAAAAAAAAAAAAAAAAAAAAAAAAAAAAAAAAAAAAAAAAAAAAAAAAAAAAAAAAAAAAAAAAAAAAAAAAAAAAAAAAAAAAAAAAAAAAAAAAAAAAAAAAAAAAAAAAAAAAAAAAAAAAAAAAAAAAAAAAAAAAAAAAAAAAAAAAAAAAAAAAAAAAAAAAAAAAAAAAAAAAAAAAAAAAAAAAAAAAAAAAAAAAAAAAAAAAAAAAAAAAAAAAAAAAAAAAAAAAAAAAAAAAAAAAAAAAAAAAAAAAAAAAAAAAAAAAAAAAAAAAAAAAAAAAAAAAAAAAAAAAAAAAAAAAAAAAAAAAAAAAAAAAAAAAAAAAAAAAAAAAAAAAAAAAAAAAAAAAAAAAAAAAAAAAAAAAAAAAAAAAAAAAAAAAAABAAAAAAAAAP8AAAAAAAAAAAAAAAAAAAAAAAAAAAAAAAAAAAAAAAAAAAAAAAAAAAAAAAAAAAAAAAAAAAAAAAAAAQIAAAAAAAAAAAAAAAAAAAAAAAAAAAAAAAAAAAAAAAAAAAAAAAAAAAAAAAAAAAAAAAAAAAAAAAAAAAAAAAAAAAAAAAAAAAAAAAAAAAAAAAAAAAAAAAAAAAAAAAAAAAAAAAAAAAAAAAAAAAAAAAAAAAAAAAAAAAAAAAAAAAAAAAAAAAAAAAAAAAAAAAAAAAAAAAAAAAAAAAAAAAAAAAAAAAAAAAAAAAAAAAAAAAAAAAAAAAAAAAAAAAAAAAAAAAAAAAAAAAAAAAAAAAAAAAAAAAAAAAAAAAAAAAAAAAAAAAAAAAAAAAAAAAAAAAAAAAAAAAAAAAAAAAAAAAAAAAAAAAAAAAAAAAAAAAAAAAAAAAAAAAAAAAAAAAAAAAAAAAAAAAAAAAAAAAAAAAAAAAAAAAAAAAAAAAAAAAAAAAAAAAAAAAAAAAAAAAAAAAAAAAAAAAAAAAAAAAAAAAAAAAAAAAAAAAAAAAAAAAAAAAAAAAAAAAAAAAAAAAAAAAAAAAAAAAAAAAAAAAAAAAAAAAAAAAAAAAAAAAAAAAAAAAAAAAAAAAAAAAAAAAAAAAAAAAAAAAAAAAAAAAAAAAAAAAAAAAAAAAAAAAAAAAAAAAAAAAAAAAAAAAAAAAAAAAAAAAAAAAAAAAAAAAAAAAAAAAAAAAAAAAAAAAAAAAAAAAAAAAAAAAAAAAAAAABLTwEEmSuN1wAAAABJRU5ErkJggg==;" vertex="1" parent="s-T4bHBDybExXTd7HbpU-1">
          <mxGeometry x="119" y="142" width="16" height="16" as="geometry" />
        </mxCell>
        <mxCell id="kAr-atC4ffAKpqcUeQYJ-16" value="" style="shape=image;verticalLabelPosition=bottom;labelBackgroundColor=default;verticalAlign=top;aspect=fixed;imageAspect=0;image=data:image/png,iVBORw0KGgoAAAANSUhEUgAAABAAAAAQCAYAAAAf8/9hAAAAAXNSR0IArs4c6QAAAAlwSFlzAAALEwAACxMBAJqcGAAAAAd0SU1FB9gFAQo7H/7Iu+wAAAAZdEVYdENvbW1lbnQAQ3JlYXRlZCB3aXRoIEdJTVBXgQ4XAAAEG0lEQVQ4EQEQBO/7AAAAAAAAAAAAAAAAAAAAAAAAAAAAAAAAAAAAAAAAAAAAAAAAAAAAAAAAAAAAAAAAAAAAAAAAAAAAAAAAAAAAAAAAAAAAAAAAAAAAAAAAAAAAAAAAAAAAAAAAAAAAAAAAAAAAAAAAAAAAAAAAAAAAAAAAAAAAAAAAAAAAAAAAAAAAAAAAAAAAAAAAAAAAAAAAAAAAAAAAAAAAAAAAAAAAAAAAAAAAAAAAAAAAAAAAAAAAAAAAAAAAAAAAAAAAAAAAAAAAAAAAAAAAAAAAAAAAAAAAAAAAAAAAAAAAAAAAAAAAAAAAAAAAAAAAAAAAAAAAAAAAAAAAAAAAAAAAAAAAAAAAAAAAAAAAAAAAAAAAAAAAAAAAAAAAAAAAAAAAAAAAAAAAAAAAAAAAAAAAAAAAAAAAAAAAAAAAAAAAAAAAAAAAAAAAAAAAAAAAAAAAAAAAAAAAAAAAAAAAAAAAAAAAAAAAAAAAAAAAAAAAAAAAAAAAAAAAAAAAAAAAAAAAAAAAAAAAAAAAAAAAAAAAAAAAAAAAAAAAAAAAAAAAAAAAAAAAAAAAAAAAAAAAAAAAAAAAAAAAAAAAAAAAAAAAAAAAAAAAAAAAAAABAAAAAAAAAP8AAAAAAAAAAAAAAAAAAAAAAAAAAAAAAAAAAAAAAAAAAAAAAAAAAAAAAAAAAAAAAAAAAAAAAAAAAQIAAAAAAAAAAAAAAAAAAAAAAAAAAAAAAAAAAAAAAAAAAAAAAAAAAAAAAAAAAAAAAAAAAAAAAAAAAAAAAAAAAAAAAAAAAAAAAAAAAAAAAAAAAAAAAAAAAAAAAAAAAAAAAAAAAAAAAAAAAAAAAAAAAAAAAAAAAAAAAAAAAAAAAAAAAAAAAAAAAAAAAAAAAAAAAAAAAAAAAAAAAAAAAAAAAAAAAAAAAAAAAAAAAAAAAAAAAAAAAAAAAAAAAAAAAAAAAAAAAAAAAAAAAAAAAAAAAAAAAAAAAAAAAAAAAAAAAAAAAAAAAAAAAAAAAAAAAAAAAAAAAAAAAAAAAAAAAAAAAAAAAAAAAAAAAAAAAAAAAAAAAAAAAAAAAAAAAAAAAAAAAAAAAAAAAAAAAAAAAAAAAAAAAAAAAAAAAAAAAAAAAAAAAAAAAAAAAAAAAAAAAAAAAAAAAAAAAAAAAAAAAAAAAAAAAAAAAAAAAAAAAAAAAAAAAAAAAAAAAAAAAAAAAAAAAAAAAAAAAAAAAAAAAAAAAAAAAAAAAAAAAAAAAAAAAAAAAAAAAAAAAAAAAAAAAAAAAAAAAAAAAAAAAAAAAAAAAAAAAAAAAAAAAAAAAAAAAAAAAAAAAAAAAAAAAAAAAAAAAAAAAAAAAAAAAAAAAAAAAAAAAAAAAAAAAAAAAAAAAAAAAAAAAAAAAABLTwEEmSuN1wAAAABJRU5ErkJggg==;" vertex="1" parent="s-T4bHBDybExXTd7HbpU-1">
          <mxGeometry x="119" y="158" width="16" height="16" as="geometry" />
        </mxCell>
        <mxCell id="kAr-atC4ffAKpqcUeQYJ-12" value="" style="shape=image;verticalLabelPosition=bottom;labelBackgroundColor=default;verticalAlign=top;aspect=fixed;imageAspect=0;image=data:image/png,iVBORw0KGgoAAAANSUhEUgAAABAAAAAQCAYAAAAf8/9hAAAAAXNSR0IArs4c6QAAAAlwSFlzAAALEwAACxMBAJqcGAAAAAd0SU1FB9gFAQsTAC9fcoQAAAAZdEVYdENvbW1lbnQAQ3JlYXRlZCB3aXRoIEdJTVBXgQ4XAAAEG0lEQVQ4EQEQBO/7AAAAAAAAAAAAAAAAAAAAAAAAAAAAAAAAAgAAAFEAAAAAAAAAAAAAAAAAAAAAAAAAAAAAAAAAAAAAAAAAAAAAAAAAAAAAAAAAAAAAAAAAAAAAGgAAAGYAAAD/AAAA/wAAAP8AAAAaAAAAAAAAAAAAAAAAAAAAAAAAAAAAAABEAAAAIwAAAAAAAAAAAAAAAE0AAAD/AAAA/wAAANMAAACEAAAA/wAAAP8AAAAXAAAAAAAAAAAAAAAAAAAAMwAAAP8AAABIAAAAAAAAAAA8AAAA/wAAAP8AAAAWAAAAAAAAAAAAAAAoAAAA/wAAAP8AAAAAAAAAAAAAABQAAAD/AAAA/wAAAAsAAAAAAAAAANMAAAD/AAAAAgAAAAAAAAAAAAAAAAAAAAAAAABqAAAA/wAAAP8AAABRAAAA/wAAAP8AAAA6AAAAAAAAAAAAAAAAKwAAAFAAAAAAAAAAAQAAAAoAAABfAAAAAAAAAAAAAABjAAAA/wAAAP8AAAD/AAAANAAAAAAAAAAAAAAAAAAAAAAAAAAAAAAAABoAAABmAAAA/wAAAP8AAAD/AAAAGgAAAAAAAAAAAAAAUAAAAAAAAAAAAAAARAAAACMAAAAAAAAAAAAAAABNAAAA/wAAAP8AAADTAAAAhAAAAP8AAAD/AAAAFwAAAAAAAAAAAAAAAAAAADMAAAD/AAAASAAAAAAAAAAAPAAAAP8AAAD/AAAAFgAAAAAAAAAAAAAAKAAAAP8AAAD/AAAAAAAAAAAAAAAUAAAA/wAAAP8AAAALAAAAAAAAAADTAAAA/wAAAAIAAAAAAAAAAAAAAAAAAAAAAAAAagAAAP8AAAD/AAAAUQAAAP8AAAD/AAAAOgAAAAAAAAAAAAAAACsAAABQAAAAAAAAAAEAAAAKAAAAXwAAAAAAAAAAAAAAYwAAAP8AAAD/AAAA/wAAADQAAAAAAAAAAAAAAAAAAAAAAAAAAAAAAAAaAAAAZgAAAP8AAAD/AAAA/wAAABoAAAAAAAAAAAAAAFAAAAAAAAAAAAAAAEQAAAAjAAAAAAAAAAAAAAAATQAAAP8AAAD/AAAA0wAAAIQAAAD/AAAA/wAAABcAAAAAAAAAAAAAAAAAAAAzAAAA/wAAAEgAAAAAAAAAADwAAAD/AAAA/wAAABYAAAAAAAAAAAAAACgAAAD/AAAA/wAAAAAAAAAAAAAAFAAAAP8AAAD/AAAACwAAAAAAAAAA0wAAAP8AAAACAAAAAAAAAAAAAAAAAAAAAAAAAGoAAAD/AAAA/wAAAFEAAAD/AAAA/wAAADoAAAAAAAAAAAAAAAArAAAAUAAAAAAAAAABAAAACAAAABUAAAAAAAAAAAAAAGMAAAD/AAAA/wAAAP8AAAA0AAAAAAAAAACZCFeoko5+2QAAAABJRU5ErkJggg==;" vertex="1" parent="s-T4bHBDybExXTd7HbpU-1">
          <mxGeometry x="116" y="240" width="16" height="16" as="geometry" />
        </mxCell>
        <mxCell id="kAr-atC4ffAKpqcUeQYJ-17" value="" style="shape=image;verticalLabelPosition=bottom;labelBackgroundColor=default;verticalAlign=top;aspect=fixed;imageAspect=0;image=data:image/png,iVBORw0KGgoAAAANSUhEUgAAABAAAAAQCAYAAAAf8/9hAAAAAXNSR0IArs4c6QAAAAlwSFlzAAALEwAACxMBAJqcGAAAAAd0SU1FB9gFAQsTAC9fcoQAAAAZdEVYdENvbW1lbnQAQ3JlYXRlZCB3aXRoIEdJTVBXgQ4XAAAEG0lEQVQ4EQEQBO/7AAAAAAAAAAAAAAAAAAAAAAAAAAAAAAAAAgAAAFEAAAAAAAAAAAAAAAAAAAAAAAAAAAAAAAAAAAAAAAAAAAAAAAAAAAAAAAAAAAAAAAAAAAAAGgAAAGYAAAD/AAAA/wAAAP8AAAAaAAAAAAAAAAAAAAAAAAAAAAAAAAAAAABEAAAAIwAAAAAAAAAAAAAAAE0AAAD/AAAA/wAAANMAAACEAAAA/wAAAP8AAAAXAAAAAAAAAAAAAAAAAAAAMwAAAP8AAABIAAAAAAAAAAA8AAAA/wAAAP8AAAAWAAAAAAAAAAAAAAAoAAAA/wAAAP8AAAAAAAAAAAAAABQAAAD/AAAA/wAAAAsAAAAAAAAAANMAAAD/AAAAAgAAAAAAAAAAAAAAAAAAAAAAAABqAAAA/wAAAP8AAABRAAAA/wAAAP8AAAA6AAAAAAAAAAAAAAAAKwAAAFAAAAAAAAAAAQAAAAoAAABfAAAAAAAAAAAAAABjAAAA/wAAAP8AAAD/AAAANAAAAAAAAAAAAAAAAAAAAAAAAAAAAAAAABoAAABmAAAA/wAAAP8AAAD/AAAAGgAAAAAAAAAAAAAAUAAAAAAAAAAAAAAARAAAACMAAAAAAAAAAAAAAABNAAAA/wAAAP8AAADTAAAAhAAAAP8AAAD/AAAAFwAAAAAAAAAAAAAAAAAAADMAAAD/AAAASAAAAAAAAAAAPAAAAP8AAAD/AAAAFgAAAAAAAAAAAAAAKAAAAP8AAAD/AAAAAAAAAAAAAAAUAAAA/wAAAP8AAAALAAAAAAAAAADTAAAA/wAAAAIAAAAAAAAAAAAAAAAAAAAAAAAAagAAAP8AAAD/AAAAUQAAAP8AAAD/AAAAOgAAAAAAAAAAAAAAACsAAABQAAAAAAAAAAEAAAAKAAAAXwAAAAAAAAAAAAAAYwAAAP8AAAD/AAAA/wAAADQAAAAAAAAAAAAAAAAAAAAAAAAAAAAAAAAaAAAAZgAAAP8AAAD/AAAA/wAAABoAAAAAAAAAAAAAAFAAAAAAAAAAAAAAAEQAAAAjAAAAAAAAAAAAAAAATQAAAP8AAAD/AAAA0wAAAIQAAAD/AAAA/wAAABcAAAAAAAAAAAAAAAAAAAAzAAAA/wAAAEgAAAAAAAAAADwAAAD/AAAA/wAAABYAAAAAAAAAAAAAACgAAAD/AAAA/wAAAAAAAAAAAAAAFAAAAP8AAAD/AAAACwAAAAAAAAAA0wAAAP8AAAACAAAAAAAAAAAAAAAAAAAAAAAAAGoAAAD/AAAA/wAAAFEAAAD/AAAA/wAAADoAAAAAAAAAAAAAAAArAAAAUAAAAAAAAAABAAAACAAAABUAAAAAAAAAAAAAAGMAAAD/AAAA/wAAAP8AAAA0AAAAAAAAAACZCFeoko5+2QAAAABJRU5ErkJggg==;" vertex="1" parent="s-T4bHBDybExXTd7HbpU-1">
          <mxGeometry x="100" y="224" width="16" height="16" as="geometry" />
        </mxCell>
        <mxCell id="kAr-atC4ffAKpqcUeQYJ-18" value="" style="shape=image;verticalLabelPosition=bottom;labelBackgroundColor=default;verticalAlign=top;aspect=fixed;imageAspect=0;image=data:image/png,iVBORw0KGgoAAAANSUhEUgAAABAAAAAQCAYAAAAf8/9hAAAAAXNSR0IArs4c6QAAAAlwSFlzAAALEwAACxMBAJqcGAAAAAd0SU1FB9gFAQo7H/7Iu+wAAAAZdEVYdENvbW1lbnQAQ3JlYXRlZCB3aXRoIEdJTVBXgQ4XAAAEG0lEQVQ4EQEQBO/7AAAAAAAAAAAAAAAAAAAAAAAAAAAAAAAAAAAAAAAAAAAAAAAAAAAAAAAAAAAAAAAAAAAAAAAAAAAAAAAAAAAAAAAAAAAAAAAAAAAAAAAAAAAAAAAAAAAAAAAAAAAAAAAAAAAAAAAAAAAAAAAAAAAAAAAAAAAAAAAAAAAAAAAAAAAAAAAAAAAAAAAAAAAAAAAAAAAAAAAAAAAAAAAAAAAAAAAAAAAAAAAAAAAAAAAAAAAAAAAAAAAAAAAAAAAAAAAAAAAAAAAAAAAAAAAAAAAAAAAAAAAAAAAAAAAAAAAAAAAAAAAAAAAAAAAAAAAAAAAAAAAAAAAAAAAAAAAAAAAAAAAAAAAAAAAAAAAAAAAAAAAAAAAAAAAAAAAAAAAAAAAAAAAAAAAAAAAAAAAAAAAAAAAAAAAAAAAAAAAAAAAAAAAAAAAAAAAAAAAAAAAAAAAAAAAAAAAAAAAAAAAAAAAAAAAAAAAAAAAAAAAAAAAAAAAAAAAAAAAAAAAAAAAAAAAAAAAAAAAAAAAAAAAAAAAAAAAAAAAAAAAAAAAAAAAAAAAAAAAAAAAAAAAAAAAAAAAAAAAAAAAAAAAAAAAAAAAAAAAAAAAAAAABAAAAAAAAAP8AAAAAAAAAAAAAAAAAAAAAAAAAAAAAAAAAAAAAAAAAAAAAAAAAAAAAAAAAAAAAAAAAAAAAAAAAAQIAAAAAAAAAAAAAAAAAAAAAAAAAAAAAAAAAAAAAAAAAAAAAAAAAAAAAAAAAAAAAAAAAAAAAAAAAAAAAAAAAAAAAAAAAAAAAAAAAAAAAAAAAAAAAAAAAAAAAAAAAAAAAAAAAAAAAAAAAAAAAAAAAAAAAAAAAAAAAAAAAAAAAAAAAAAAAAAAAAAAAAAAAAAAAAAAAAAAAAAAAAAAAAAAAAAAAAAAAAAAAAAAAAAAAAAAAAAAAAAAAAAAAAAAAAAAAAAAAAAAAAAAAAAAAAAAAAAAAAAAAAAAAAAAAAAAAAAAAAAAAAAAAAAAAAAAAAAAAAAAAAAAAAAAAAAAAAAAAAAAAAAAAAAAAAAAAAAAAAAAAAAAAAAAAAAAAAAAAAAAAAAAAAAAAAAAAAAAAAAAAAAAAAAAAAAAAAAAAAAAAAAAAAAAAAAAAAAAAAAAAAAAAAAAAAAAAAAAAAAAAAAAAAAAAAAAAAAAAAAAAAAAAAAAAAAAAAAAAAAAAAAAAAAAAAAAAAAAAAAAAAAAAAAAAAAAAAAAAAAAAAAAAAAAAAAAAAAAAAAAAAAAAAAAAAAAAAAAAAAAAAAAAAAAAAAAAAAAAAAAAAAAAAAAAAAAAAAAAAAAAAAAAAAAAAAAAAAAAAAAAAAAAAAAAAAAAAAAAAAAAAAAAAAAAAAAAAAAAAAAAAAAAAAAAAABLTwEEmSuN1wAAAABJRU5ErkJggg==;" vertex="1" parent="s-T4bHBDybExXTd7HbpU-1">
          <mxGeometry x="100" y="256" width="16" height="16" as="geometry" />
        </mxCell>
        <mxCell id="kAr-atC4ffAKpqcUeQYJ-24" value="" style="shape=image;verticalLabelPosition=bottom;labelBackgroundColor=default;verticalAlign=top;aspect=fixed;imageAspect=0;image=data:image/png,iVBORw0KGgoAAAANSUhEUgAAABAAAAAQCAYAAAAf8/9hAAAAAXNSR0IArs4c6QAAAAlwSFlzAAALEwAACxMBAJqcGAAAAAd0SU1FB9gFAQsTAC9fcoQAAAAZdEVYdENvbW1lbnQAQ3JlYXRlZCB3aXRoIEdJTVBXgQ4XAAAEG0lEQVQ4EQEQBO/7AAAAAAAAAAAAAAAAAAAAAAAAAAAAAAAAAgAAAFEAAAAAAAAAAAAAAAAAAAAAAAAAAAAAAAAAAAAAAAAAAAAAAAAAAAAAAAAAAAAAAAAAAAAAGgAAAGYAAAD/AAAA/wAAAP8AAAAaAAAAAAAAAAAAAAAAAAAAAAAAAAAAAABEAAAAIwAAAAAAAAAAAAAAAE0AAAD/AAAA/wAAANMAAACEAAAA/wAAAP8AAAAXAAAAAAAAAAAAAAAAAAAAMwAAAP8AAABIAAAAAAAAAAA8AAAA/wAAAP8AAAAWAAAAAAAAAAAAAAAoAAAA/wAAAP8AAAAAAAAAAAAAABQAAAD/AAAA/wAAAAsAAAAAAAAAANMAAAD/AAAAAgAAAAAAAAAAAAAAAAAAAAAAAABqAAAA/wAAAP8AAABRAAAA/wAAAP8AAAA6AAAAAAAAAAAAAAAAKwAAAFAAAAAAAAAAAQAAAAoAAABfAAAAAAAAAAAAAABjAAAA/wAAAP8AAAD/AAAANAAAAAAAAAAAAAAAAAAAAAAAAAAAAAAAABoAAABmAAAA/wAAAP8AAAD/AAAAGgAAAAAAAAAAAAAAUAAAAAAAAAAAAAAARAAAACMAAAAAAAAAAAAAAABNAAAA/wAAAP8AAADTAAAAhAAAAP8AAAD/AAAAFwAAAAAAAAAAAAAAAAAAADMAAAD/AAAASAAAAAAAAAAAPAAAAP8AAAD/AAAAFgAAAAAAAAAAAAAAKAAAAP8AAAD/AAAAAAAAAAAAAAAUAAAA/wAAAP8AAAALAAAAAAAAAADTAAAA/wAAAAIAAAAAAAAAAAAAAAAAAAAAAAAAagAAAP8AAAD/AAAAUQAAAP8AAAD/AAAAOgAAAAAAAAAAAAAAACsAAABQAAAAAAAAAAEAAAAKAAAAXwAAAAAAAAAAAAAAYwAAAP8AAAD/AAAA/wAAADQAAAAAAAAAAAAAAAAAAAAAAAAAAAAAAAAaAAAAZgAAAP8AAAD/AAAA/wAAABoAAAAAAAAAAAAAAFAAAAAAAAAAAAAAAEQAAAAjAAAAAAAAAAAAAAAATQAAAP8AAAD/AAAA0wAAAIQAAAD/AAAA/wAAABcAAAAAAAAAAAAAAAAAAAAzAAAA/wAAAEgAAAAAAAAAADwAAAD/AAAA/wAAABYAAAAAAAAAAAAAACgAAAD/AAAA/wAAAAAAAAAAAAAAFAAAAP8AAAD/AAAACwAAAAAAAAAA0wAAAP8AAAACAAAAAAAAAAAAAAAAAAAAAAAAAGoAAAD/AAAA/wAAAFEAAAD/AAAA/wAAADoAAAAAAAAAAAAAAAArAAAAUAAAAAAAAAABAAAACAAAABUAAAAAAAAAAAAAAGMAAAD/AAAA/wAAAP8AAAA0AAAAAAAAAACZCFeoko5+2QAAAABJRU5ErkJggg==;" vertex="1" parent="s-T4bHBDybExXTd7HbpU-1">
          <mxGeometry x="552" y="110" width="16" height="16" as="geometry" />
        </mxCell>
        <mxCell id="kAr-atC4ffAKpqcUeQYJ-25" value="" style="shape=image;verticalLabelPosition=bottom;labelBackgroundColor=default;verticalAlign=top;aspect=fixed;imageAspect=0;image=data:image/png,iVBORw0KGgoAAAANSUhEUgAAABAAAAAQCAYAAAAf8/9hAAAAAXNSR0IArs4c6QAAAAlwSFlzAAALEwAACxMBAJqcGAAAAAd0SU1FB9gFAQsTAC9fcoQAAAAZdEVYdENvbW1lbnQAQ3JlYXRlZCB3aXRoIEdJTVBXgQ4XAAAEG0lEQVQ4EQEQBO/7AAAAAAAAAAAAAAAAAAAAAAAAAAAAAAAAAgAAAFEAAAAAAAAAAAAAAAAAAAAAAAAAAAAAAAAAAAAAAAAAAAAAAAAAAAAAAAAAAAAAAAAAAAAAGgAAAGYAAAD/AAAA/wAAAP8AAAAaAAAAAAAAAAAAAAAAAAAAAAAAAAAAAABEAAAAIwAAAAAAAAAAAAAAAE0AAAD/AAAA/wAAANMAAACEAAAA/wAAAP8AAAAXAAAAAAAAAAAAAAAAAAAAMwAAAP8AAABIAAAAAAAAAAA8AAAA/wAAAP8AAAAWAAAAAAAAAAAAAAAoAAAA/wAAAP8AAAAAAAAAAAAAABQAAAD/AAAA/wAAAAsAAAAAAAAAANMAAAD/AAAAAgAAAAAAAAAAAAAAAAAAAAAAAABqAAAA/wAAAP8AAABRAAAA/wAAAP8AAAA6AAAAAAAAAAAAAAAAKwAAAFAAAAAAAAAAAQAAAAoAAABfAAAAAAAAAAAAAABjAAAA/wAAAP8AAAD/AAAANAAAAAAAAAAAAAAAAAAAAAAAAAAAAAAAABoAAABmAAAA/wAAAP8AAAD/AAAAGgAAAAAAAAAAAAAAUAAAAAAAAAAAAAAARAAAACMAAAAAAAAAAAAAAABNAAAA/wAAAP8AAADTAAAAhAAAAP8AAAD/AAAAFwAAAAAAAAAAAAAAAAAAADMAAAD/AAAASAAAAAAAAAAAPAAAAP8AAAD/AAAAFgAAAAAAAAAAAAAAKAAAAP8AAAD/AAAAAAAAAAAAAAAUAAAA/wAAAP8AAAALAAAAAAAAAADTAAAA/wAAAAIAAAAAAAAAAAAAAAAAAAAAAAAAagAAAP8AAAD/AAAAUQAAAP8AAAD/AAAAOgAAAAAAAAAAAAAAACsAAABQAAAAAAAAAAEAAAAKAAAAXwAAAAAAAAAAAAAAYwAAAP8AAAD/AAAA/wAAADQAAAAAAAAAAAAAAAAAAAAAAAAAAAAAAAAaAAAAZgAAAP8AAAD/AAAA/wAAABoAAAAAAAAAAAAAAFAAAAAAAAAAAAAAAEQAAAAjAAAAAAAAAAAAAAAATQAAAP8AAAD/AAAA0wAAAIQAAAD/AAAA/wAAABcAAAAAAAAAAAAAAAAAAAAzAAAA/wAAAEgAAAAAAAAAADwAAAD/AAAA/wAAABYAAAAAAAAAAAAAACgAAAD/AAAA/wAAAAAAAAAAAAAAFAAAAP8AAAD/AAAACwAAAAAAAAAA0wAAAP8AAAACAAAAAAAAAAAAAAAAAAAAAAAAAGoAAAD/AAAA/wAAAFEAAAD/AAAA/wAAADoAAAAAAAAAAAAAAAArAAAAUAAAAAAAAAABAAAACAAAABUAAAAAAAAAAAAAAGMAAAD/AAAA/wAAAP8AAAA0AAAAAAAAAACZCFeoko5+2QAAAABJRU5ErkJggg==;" vertex="1" parent="s-T4bHBDybExXTd7HbpU-1">
          <mxGeometry x="607" y="142" width="16" height="16" as="geometry" />
        </mxCell>
        <mxCell id="kAr-atC4ffAKpqcUeQYJ-26" value="" style="shape=image;verticalLabelPosition=bottom;labelBackgroundColor=default;verticalAlign=top;aspect=fixed;imageAspect=0;image=data:image/png,iVBORw0KGgoAAAANSUhEUgAAABAAAAAQCAYAAAAf8/9hAAAAAXNSR0IArs4c6QAAAAlwSFlzAAALEwAACxMBAJqcGAAAAAd0SU1FB9gFAQo7H/7Iu+wAAAAZdEVYdENvbW1lbnQAQ3JlYXRlZCB3aXRoIEdJTVBXgQ4XAAAEG0lEQVQ4EQEQBO/7AAAAAAAAAAAAAAAAAAAAAAAAAAAAAAAAAAAAAAAAAAAAAAAAAAAAAAAAAAAAAAAAAAAAAAAAAAAAAAAAAAAAAAAAAAAAAAAAAAAAAAAAAAAAAAAAAAAAAAAAAAAAAAAAAAAAAAAAAAAAAAAAAAAAAAAAAAAAAAAAAAAAAAAAAAAAAAAAAAAAAAAAAAAAAAAAAAAAAAAAAAAAAAAAAAAAAAAAAAAAAAAAAAAAAAAAAAAAAAAAAAAAAAAAAAAAAAAAAAAAAAAAAAAAAAAAAAAAAAAAAAAAAAAAAAAAAAAAAAAAAAAAAAAAAAAAAAAAAAAAAAAAAAAAAAAAAAAAAAAAAAAAAAAAAAAAAAAAAAAAAAAAAAAAAAAAAAAAAAAAAAAAAAAAAAAAAAAAAAAAAAAAAAAAAAAAAAAAAAAAAAAAAAAAAAAAAAAAAAAAAAAAAAAAAAAAAAAAAAAAAAAAAAAAAAAAAAAAAAAAAAAAAAAAAAAAAAAAAAAAAAAAAAAAAAAAAAAAAAAAAAAAAAAAAAAAAAAAAAAAAAAAAAAAAAAAAAAAAAAAAAAAAAAAAAAAAAAAAAAAAAAAAAAAAAAAAAAAAAAAAAAAAAABAAAAAAAAAP8AAAAAAAAAAAAAAAAAAAAAAAAAAAAAAAAAAAAAAAAAAAAAAAAAAAAAAAAAAAAAAAAAAAAAAAAAAQIAAAAAAAAAAAAAAAAAAAAAAAAAAAAAAAAAAAAAAAAAAAAAAAAAAAAAAAAAAAAAAAAAAAAAAAAAAAAAAAAAAAAAAAAAAAAAAAAAAAAAAAAAAAAAAAAAAAAAAAAAAAAAAAAAAAAAAAAAAAAAAAAAAAAAAAAAAAAAAAAAAAAAAAAAAAAAAAAAAAAAAAAAAAAAAAAAAAAAAAAAAAAAAAAAAAAAAAAAAAAAAAAAAAAAAAAAAAAAAAAAAAAAAAAAAAAAAAAAAAAAAAAAAAAAAAAAAAAAAAAAAAAAAAAAAAAAAAAAAAAAAAAAAAAAAAAAAAAAAAAAAAAAAAAAAAAAAAAAAAAAAAAAAAAAAAAAAAAAAAAAAAAAAAAAAAAAAAAAAAAAAAAAAAAAAAAAAAAAAAAAAAAAAAAAAAAAAAAAAAAAAAAAAAAAAAAAAAAAAAAAAAAAAAAAAAAAAAAAAAAAAAAAAAAAAAAAAAAAAAAAAAAAAAAAAAAAAAAAAAAAAAAAAAAAAAAAAAAAAAAAAAAAAAAAAAAAAAAAAAAAAAAAAAAAAAAAAAAAAAAAAAAAAAAAAAAAAAAAAAAAAAAAAAAAAAAAAAAAAAAAAAAAAAAAAAAAAAAAAAAAAAAAAAAAAAAAAAAAAAAAAAAAAAAAAAAAAAAAAAAAAAAAAAAAAAAAAAAAAAAAAAAAAAAAAABLTwEEmSuN1wAAAABJRU5ErkJggg==;" vertex="1" parent="s-T4bHBDybExXTd7HbpU-1">
          <mxGeometry x="530" y="158" width="16" height="16" as="geometry" />
        </mxCell>
        <mxCell id="kAr-atC4ffAKpqcUeQYJ-27" value="" style="shape=image;verticalLabelPosition=bottom;labelBackgroundColor=default;verticalAlign=top;aspect=fixed;imageAspect=0;image=data:image/png,iVBORw0KGgoAAAANSUhEUgAAABAAAAAQCAYAAAAf8/9hAAAAAXNSR0IArs4c6QAAAAlwSFlzAAALEwAACxMBAJqcGAAAAAd0SU1FB9gFAQsTAC9fcoQAAAAZdEVYdENvbW1lbnQAQ3JlYXRlZCB3aXRoIEdJTVBXgQ4XAAAEG0lEQVQ4EQEQBO/7AAAAAAAAAAAAAAAAAAAAAAAAAAAAAAAAAgAAAFEAAAAAAAAAAAAAAAAAAAAAAAAAAAAAAAAAAAAAAAAAAAAAAAAAAAAAAAAAAAAAAAAAAAAAGgAAAGYAAAD/AAAA/wAAAP8AAAAaAAAAAAAAAAAAAAAAAAAAAAAAAAAAAABEAAAAIwAAAAAAAAAAAAAAAE0AAAD/AAAA/wAAANMAAACEAAAA/wAAAP8AAAAXAAAAAAAAAAAAAAAAAAAAMwAAAP8AAABIAAAAAAAAAAA8AAAA/wAAAP8AAAAWAAAAAAAAAAAAAAAoAAAA/wAAAP8AAAAAAAAAAAAAABQAAAD/AAAA/wAAAAsAAAAAAAAAANMAAAD/AAAAAgAAAAAAAAAAAAAAAAAAAAAAAABqAAAA/wAAAP8AAABRAAAA/wAAAP8AAAA6AAAAAAAAAAAAAAAAKwAAAFAAAAAAAAAAAQAAAAoAAABfAAAAAAAAAAAAAABjAAAA/wAAAP8AAAD/AAAANAAAAAAAAAAAAAAAAAAAAAAAAAAAAAAAABoAAABmAAAA/wAAAP8AAAD/AAAAGgAAAAAAAAAAAAAAUAAAAAAAAAAAAAAARAAAACMAAAAAAAAAAAAAAABNAAAA/wAAAP8AAADTAAAAhAAAAP8AAAD/AAAAFwAAAAAAAAAAAAAAAAAAADMAAAD/AAAASAAAAAAAAAAAPAAAAP8AAAD/AAAAFgAAAAAAAAAAAAAAKAAAAP8AAAD/AAAAAAAAAAAAAAAUAAAA/wAAAP8AAAALAAAAAAAAAADTAAAA/wAAAAIAAAAAAAAAAAAAAAAAAAAAAAAAagAAAP8AAAD/AAAAUQAAAP8AAAD/AAAAOgAAAAAAAAAAAAAAACsAAABQAAAAAAAAAAEAAAAKAAAAXwAAAAAAAAAAAAAAYwAAAP8AAAD/AAAA/wAAADQAAAAAAAAAAAAAAAAAAAAAAAAAAAAAAAAaAAAAZgAAAP8AAAD/AAAA/wAAABoAAAAAAAAAAAAAAFAAAAAAAAAAAAAAAEQAAAAjAAAAAAAAAAAAAAAATQAAAP8AAAD/AAAA0wAAAIQAAAD/AAAA/wAAABcAAAAAAAAAAAAAAAAAAAAzAAAA/wAAAEgAAAAAAAAAADwAAAD/AAAA/wAAABYAAAAAAAAAAAAAACgAAAD/AAAA/wAAAAAAAAAAAAAAFAAAAP8AAAD/AAAACwAAAAAAAAAA0wAAAP8AAAACAAAAAAAAAAAAAAAAAAAAAAAAAGoAAAD/AAAA/wAAAFEAAAD/AAAA/wAAADoAAAAAAAAAAAAAAAArAAAAUAAAAAAAAAABAAAACAAAABUAAAAAAAAAAAAAAGMAAAD/AAAA/wAAAP8AAAA0AAAAAAAAAACZCFeoko5+2QAAAABJRU5ErkJggg==;" vertex="1" parent="s-T4bHBDybExXTd7HbpU-1">
          <mxGeometry x="90" y="340" width="16" height="16" as="geometry" />
        </mxCell>
        <mxCell id="kAr-atC4ffAKpqcUeQYJ-28" value="" style="shape=image;verticalLabelPosition=bottom;labelBackgroundColor=default;verticalAlign=top;aspect=fixed;imageAspect=0;image=data:image/png,iVBORw0KGgoAAAANSUhEUgAAABAAAAAQCAYAAAAf8/9hAAAAAXNSR0IArs4c6QAAAAlwSFlzAAALEwAACxMBAJqcGAAAAAd0SU1FB9gFAQo7H/7Iu+wAAAAZdEVYdENvbW1lbnQAQ3JlYXRlZCB3aXRoIEdJTVBXgQ4XAAAEG0lEQVQ4EQEQBO/7AAAAAAAAAAAAAAAAAAAAAAAAAAAAAAAAAAAAAAAAAAAAAAAAAAAAAAAAAAAAAAAAAAAAAAAAAAAAAAAAAAAAAAAAAAAAAAAAAAAAAAAAAAAAAAAAAAAAAAAAAAAAAAAAAAAAAAAAAAAAAAAAAAAAAAAAAAAAAAAAAAAAAAAAAAAAAAAAAAAAAAAAAAAAAAAAAAAAAAAAAAAAAAAAAAAAAAAAAAAAAAAAAAAAAAAAAAAAAAAAAAAAAAAAAAAAAAAAAAAAAAAAAAAAAAAAAAAAAAAAAAAAAAAAAAAAAAAAAAAAAAAAAAAAAAAAAAAAAAAAAAAAAAAAAAAAAAAAAAAAAAAAAAAAAAAAAAAAAAAAAAAAAAAAAAAAAAAAAAAAAAAAAAAAAAAAAAAAAAAAAAAAAAAAAAAAAAAAAAAAAAAAAAAAAAAAAAAAAAAAAAAAAAAAAAAAAAAAAAAAAAAAAAAAAAAAAAAAAAAAAAAAAAAAAAAAAAAAAAAAAAAAAAAAAAAAAAAAAAAAAAAAAAAAAAAAAAAAAAAAAAAAAAAAAAAAAAAAAAAAAAAAAAAAAAAAAAAAAAAAAAAAAAAAAAAAAAAAAAAAAAAAAAABAAAAAAAAAP8AAAAAAAAAAAAAAAAAAAAAAAAAAAAAAAAAAAAAAAAAAAAAAAAAAAAAAAAAAAAAAAAAAAAAAAAAAQIAAAAAAAAAAAAAAAAAAAAAAAAAAAAAAAAAAAAAAAAAAAAAAAAAAAAAAAAAAAAAAAAAAAAAAAAAAAAAAAAAAAAAAAAAAAAAAAAAAAAAAAAAAAAAAAAAAAAAAAAAAAAAAAAAAAAAAAAAAAAAAAAAAAAAAAAAAAAAAAAAAAAAAAAAAAAAAAAAAAAAAAAAAAAAAAAAAAAAAAAAAAAAAAAAAAAAAAAAAAAAAAAAAAAAAAAAAAAAAAAAAAAAAAAAAAAAAAAAAAAAAAAAAAAAAAAAAAAAAAAAAAAAAAAAAAAAAAAAAAAAAAAAAAAAAAAAAAAAAAAAAAAAAAAAAAAAAAAAAAAAAAAAAAAAAAAAAAAAAAAAAAAAAAAAAAAAAAAAAAAAAAAAAAAAAAAAAAAAAAAAAAAAAAAAAAAAAAAAAAAAAAAAAAAAAAAAAAAAAAAAAAAAAAAAAAAAAAAAAAAAAAAAAAAAAAAAAAAAAAAAAAAAAAAAAAAAAAAAAAAAAAAAAAAAAAAAAAAAAAAAAAAAAAAAAAAAAAAAAAAAAAAAAAAAAAAAAAAAAAAAAAAAAAAAAAAAAAAAAAAAAAAAAAAAAAAAAAAAAAAAAAAAAAAAAAAAAAAAAAAAAAAAAAAAAAAAAAAAAAAAAAAAAAAAAAAAAAAAAAAAAAAAAAAAAAAAAAAAAAAAAAAAAAAAAABLTwEEmSuN1wAAAABJRU5ErkJggg==;" vertex="1" parent="s-T4bHBDybExXTd7HbpU-1">
          <mxGeometry x="100" y="356" width="16" height="16" as="geometry" />
        </mxCell>
        <mxCell id="kAr-atC4ffAKpqcUeQYJ-29" value="" style="shape=image;verticalLabelPosition=bottom;labelBackgroundColor=default;verticalAlign=top;aspect=fixed;imageAspect=0;image=data:image/png,iVBORw0KGgoAAAANSUhEUgAAABAAAAAQCAYAAAAf8/9hAAAAAXNSR0IArs4c6QAAAAlwSFlzAAALEwAACxMBAJqcGAAAAAd0SU1FB9gFAQsTAC9fcoQAAAAZdEVYdENvbW1lbnQAQ3JlYXRlZCB3aXRoIEdJTVBXgQ4XAAAEG0lEQVQ4EQEQBO/7AAAAAAAAAAAAAAAAAAAAAAAAAAAAAAAAAgAAAFEAAAAAAAAAAAAAAAAAAAAAAAAAAAAAAAAAAAAAAAAAAAAAAAAAAAAAAAAAAAAAAAAAAAAAGgAAAGYAAAD/AAAA/wAAAP8AAAAaAAAAAAAAAAAAAAAAAAAAAAAAAAAAAABEAAAAIwAAAAAAAAAAAAAAAE0AAAD/AAAA/wAAANMAAACEAAAA/wAAAP8AAAAXAAAAAAAAAAAAAAAAAAAAMwAAAP8AAABIAAAAAAAAAAA8AAAA/wAAAP8AAAAWAAAAAAAAAAAAAAAoAAAA/wAAAP8AAAAAAAAAAAAAABQAAAD/AAAA/wAAAAsAAAAAAAAAANMAAAD/AAAAAgAAAAAAAAAAAAAAAAAAAAAAAABqAAAA/wAAAP8AAABRAAAA/wAAAP8AAAA6AAAAAAAAAAAAAAAAKwAAAFAAAAAAAAAAAQAAAAoAAABfAAAAAAAAAAAAAABjAAAA/wAAAP8AAAD/AAAANAAAAAAAAAAAAAAAAAAAAAAAAAAAAAAAABoAAABmAAAA/wAAAP8AAAD/AAAAGgAAAAAAAAAAAAAAUAAAAAAAAAAAAAAARAAAACMAAAAAAAAAAAAAAABNAAAA/wAAAP8AAADTAAAAhAAAAP8AAAD/AAAAFwAAAAAAAAAAAAAAAAAAADMAAAD/AAAASAAAAAAAAAAAPAAAAP8AAAD/AAAAFgAAAAAAAAAAAAAAKAAAAP8AAAD/AAAAAAAAAAAAAAAUAAAA/wAAAP8AAAALAAAAAAAAAADTAAAA/wAAAAIAAAAAAAAAAAAAAAAAAAAAAAAAagAAAP8AAAD/AAAAUQAAAP8AAAD/AAAAOgAAAAAAAAAAAAAAACsAAABQAAAAAAAAAAEAAAAKAAAAXwAAAAAAAAAAAAAAYwAAAP8AAAD/AAAA/wAAADQAAAAAAAAAAAAAAAAAAAAAAAAAAAAAAAAaAAAAZgAAAP8AAAD/AAAA/wAAABoAAAAAAAAAAAAAAFAAAAAAAAAAAAAAAEQAAAAjAAAAAAAAAAAAAAAATQAAAP8AAAD/AAAA0wAAAIQAAAD/AAAA/wAAABcAAAAAAAAAAAAAAAAAAAAzAAAA/wAAAEgAAAAAAAAAADwAAAD/AAAA/wAAABYAAAAAAAAAAAAAACgAAAD/AAAA/wAAAAAAAAAAAAAAFAAAAP8AAAD/AAAACwAAAAAAAAAA0wAAAP8AAAACAAAAAAAAAAAAAAAAAAAAAAAAAGoAAAD/AAAA/wAAAFEAAAD/AAAA/wAAADoAAAAAAAAAAAAAAAArAAAAUAAAAAAAAAABAAAACAAAABUAAAAAAAAAAAAAAGMAAAD/AAAA/wAAAP8AAAA0AAAAAAAAAACZCFeoko5+2QAAAABJRU5ErkJggg==;" vertex="1" parent="s-T4bHBDybExXTd7HbpU-1">
          <mxGeometry x="300" y="256" width="16" height="16" as="geometry" />
        </mxCell>
        <mxCell id="kAr-atC4ffAKpqcUeQYJ-30" value="" style="shape=image;verticalLabelPosition=bottom;labelBackgroundColor=default;verticalAlign=top;aspect=fixed;imageAspect=0;image=data:image/png,iVBORw0KGgoAAAANSUhEUgAAABAAAAAQCAYAAAAf8/9hAAAAAXNSR0IArs4c6QAAAAlwSFlzAAALEwAACxMBAJqcGAAAAAd0SU1FB9gFAQsTAC9fcoQAAAAZdEVYdENvbW1lbnQAQ3JlYXRlZCB3aXRoIEdJTVBXgQ4XAAAEG0lEQVQ4EQEQBO/7AAAAAAAAAAAAAAAAAAAAAAAAAAAAAAAAAgAAAFEAAAAAAAAAAAAAAAAAAAAAAAAAAAAAAAAAAAAAAAAAAAAAAAAAAAAAAAAAAAAAAAAAAAAAGgAAAGYAAAD/AAAA/wAAAP8AAAAaAAAAAAAAAAAAAAAAAAAAAAAAAAAAAABEAAAAIwAAAAAAAAAAAAAAAE0AAAD/AAAA/wAAANMAAACEAAAA/wAAAP8AAAAXAAAAAAAAAAAAAAAAAAAAMwAAAP8AAABIAAAAAAAAAAA8AAAA/wAAAP8AAAAWAAAAAAAAAAAAAAAoAAAA/wAAAP8AAAAAAAAAAAAAABQAAAD/AAAA/wAAAAsAAAAAAAAAANMAAAD/AAAAAgAAAAAAAAAAAAAAAAAAAAAAAABqAAAA/wAAAP8AAABRAAAA/wAAAP8AAAA6AAAAAAAAAAAAAAAAKwAAAFAAAAAAAAAAAQAAAAoAAABfAAAAAAAAAAAAAABjAAAA/wAAAP8AAAD/AAAANAAAAAAAAAAAAAAAAAAAAAAAAAAAAAAAABoAAABmAAAA/wAAAP8AAAD/AAAAGgAAAAAAAAAAAAAAUAAAAAAAAAAAAAAARAAAACMAAAAAAAAAAAAAAABNAAAA/wAAAP8AAADTAAAAhAAAAP8AAAD/AAAAFwAAAAAAAAAAAAAAAAAAADMAAAD/AAAASAAAAAAAAAAAPAAAAP8AAAD/AAAAFgAAAAAAAAAAAAAAKAAAAP8AAAD/AAAAAAAAAAAAAAAUAAAA/wAAAP8AAAALAAAAAAAAAADTAAAA/wAAAAIAAAAAAAAAAAAAAAAAAAAAAAAAagAAAP8AAAD/AAAAUQAAAP8AAAD/AAAAOgAAAAAAAAAAAAAAACsAAABQAAAAAAAAAAEAAAAKAAAAXwAAAAAAAAAAAAAAYwAAAP8AAAD/AAAA/wAAADQAAAAAAAAAAAAAAAAAAAAAAAAAAAAAAAAaAAAAZgAAAP8AAAD/AAAA/wAAABoAAAAAAAAAAAAAAFAAAAAAAAAAAAAAAEQAAAAjAAAAAAAAAAAAAAAATQAAAP8AAAD/AAAA0wAAAIQAAAD/AAAA/wAAABcAAAAAAAAAAAAAAAAAAAAzAAAA/wAAAEgAAAAAAAAAADwAAAD/AAAA/wAAABYAAAAAAAAAAAAAACgAAAD/AAAA/wAAAAAAAAAAAAAAFAAAAP8AAAD/AAAACwAAAAAAAAAA0wAAAP8AAAACAAAAAAAAAAAAAAAAAAAAAAAAAGoAAAD/AAAA/wAAAFEAAAD/AAAA/wAAADoAAAAAAAAAAAAAAAArAAAAUAAAAAAAAAABAAAACAAAABUAAAAAAAAAAAAAAGMAAAD/AAAA/wAAAP8AAAA0AAAAAAAAAACZCFeoko5+2QAAAABJRU5ErkJggg==;" vertex="1" parent="s-T4bHBDybExXTd7HbpU-1">
          <mxGeometry x="332" y="272" width="16" height="16" as="geometry" />
        </mxCell>
        <mxCell id="kAr-atC4ffAKpqcUeQYJ-31" value="" style="shape=image;verticalLabelPosition=bottom;labelBackgroundColor=default;verticalAlign=top;aspect=fixed;imageAspect=0;image=data:image/png,iVBORw0KGgoAAAANSUhEUgAAABAAAAAQCAYAAAAf8/9hAAAAAXNSR0IArs4c6QAAAAlwSFlzAAALEwAACxMBAJqcGAAAAAd0SU1FB9gFAQo7H/7Iu+wAAAAZdEVYdENvbW1lbnQAQ3JlYXRlZCB3aXRoIEdJTVBXgQ4XAAAEG0lEQVQ4EQEQBO/7AAAAAAAAAAAAAAAAAAAAAAAAAAAAAAAAAAAAAAAAAAAAAAAAAAAAAAAAAAAAAAAAAAAAAAAAAAAAAAAAAAAAAAAAAAAAAAAAAAAAAAAAAAAAAAAAAAAAAAAAAAAAAAAAAAAAAAAAAAAAAAAAAAAAAAAAAAAAAAAAAAAAAAAAAAAAAAAAAAAAAAAAAAAAAAAAAAAAAAAAAAAAAAAAAAAAAAAAAAAAAAAAAAAAAAAAAAAAAAAAAAAAAAAAAAAAAAAAAAAAAAAAAAAAAAAAAAAAAAAAAAAAAAAAAAAAAAAAAAAAAAAAAAAAAAAAAAAAAAAAAAAAAAAAAAAAAAAAAAAAAAAAAAAAAAAAAAAAAAAAAAAAAAAAAAAAAAAAAAAAAAAAAAAAAAAAAAAAAAAAAAAAAAAAAAAAAAAAAAAAAAAAAAAAAAAAAAAAAAAAAAAAAAAAAAAAAAAAAAAAAAAAAAAAAAAAAAAAAAAAAAAAAAAAAAAAAAAAAAAAAAAAAAAAAAAAAAAAAAAAAAAAAAAAAAAAAAAAAAAAAAAAAAAAAAAAAAAAAAAAAAAAAAAAAAAAAAAAAAAAAAAAAAAAAAAAAAAAAAAAAAAAAAABAAAAAAAAAP8AAAAAAAAAAAAAAAAAAAAAAAAAAAAAAAAAAAAAAAAAAAAAAAAAAAAAAAAAAAAAAAAAAAAAAAAAAQIAAAAAAAAAAAAAAAAAAAAAAAAAAAAAAAAAAAAAAAAAAAAAAAAAAAAAAAAAAAAAAAAAAAAAAAAAAAAAAAAAAAAAAAAAAAAAAAAAAAAAAAAAAAAAAAAAAAAAAAAAAAAAAAAAAAAAAAAAAAAAAAAAAAAAAAAAAAAAAAAAAAAAAAAAAAAAAAAAAAAAAAAAAAAAAAAAAAAAAAAAAAAAAAAAAAAAAAAAAAAAAAAAAAAAAAAAAAAAAAAAAAAAAAAAAAAAAAAAAAAAAAAAAAAAAAAAAAAAAAAAAAAAAAAAAAAAAAAAAAAAAAAAAAAAAAAAAAAAAAAAAAAAAAAAAAAAAAAAAAAAAAAAAAAAAAAAAAAAAAAAAAAAAAAAAAAAAAAAAAAAAAAAAAAAAAAAAAAAAAAAAAAAAAAAAAAAAAAAAAAAAAAAAAAAAAAAAAAAAAAAAAAAAAAAAAAAAAAAAAAAAAAAAAAAAAAAAAAAAAAAAAAAAAAAAAAAAAAAAAAAAAAAAAAAAAAAAAAAAAAAAAAAAAAAAAAAAAAAAAAAAAAAAAAAAAAAAAAAAAAAAAAAAAAAAAAAAAAAAAAAAAAAAAAAAAAAAAAAAAAAAAAAAAAAAAAAAAAAAAAAAAAAAAAAAAAAAAAAAAAAAAAAAAAAAAAAAAAAAAAAAAAAAAAAAAAAAAAAAAAAAAAAAAAAAABLTwEEmSuN1wAAAABJRU5ErkJggg==;" vertex="1" parent="s-T4bHBDybExXTd7HbpU-1">
          <mxGeometry x="310" y="290" width="16" height="16" as="geometry" />
        </mxCell>
        <mxCell id="kAr-atC4ffAKpqcUeQYJ-32" value="" style="shape=image;verticalLabelPosition=bottom;labelBackgroundColor=default;verticalAlign=top;aspect=fixed;imageAspect=0;image=data:image/png,iVBORw0KGgoAAAANSUhEUgAAABAAAAAQCAYAAAAf8/9hAAAAAXNSR0IArs4c6QAAAAlwSFlzAAALEwAACxMBAJqcGAAAAAd0SU1FB9gFAQsTAC9fcoQAAAAZdEVYdENvbW1lbnQAQ3JlYXRlZCB3aXRoIEdJTVBXgQ4XAAAEG0lEQVQ4EQEQBO/7AAAAAAAAAAAAAAAAAAAAAAAAAAAAAAAAAgAAAFEAAAAAAAAAAAAAAAAAAAAAAAAAAAAAAAAAAAAAAAAAAAAAAAAAAAAAAAAAAAAAAAAAAAAAGgAAAGYAAAD/AAAA/wAAAP8AAAAaAAAAAAAAAAAAAAAAAAAAAAAAAAAAAABEAAAAIwAAAAAAAAAAAAAAAE0AAAD/AAAA/wAAANMAAACEAAAA/wAAAP8AAAAXAAAAAAAAAAAAAAAAAAAAMwAAAP8AAABIAAAAAAAAAAA8AAAA/wAAAP8AAAAWAAAAAAAAAAAAAAAoAAAA/wAAAP8AAAAAAAAAAAAAABQAAAD/AAAA/wAAAAsAAAAAAAAAANMAAAD/AAAAAgAAAAAAAAAAAAAAAAAAAAAAAABqAAAA/wAAAP8AAABRAAAA/wAAAP8AAAA6AAAAAAAAAAAAAAAAKwAAAFAAAAAAAAAAAQAAAAoAAABfAAAAAAAAAAAAAABjAAAA/wAAAP8AAAD/AAAANAAAAAAAAAAAAAAAAAAAAAAAAAAAAAAAABoAAABmAAAA/wAAAP8AAAD/AAAAGgAAAAAAAAAAAAAAUAAAAAAAAAAAAAAARAAAACMAAAAAAAAAAAAAAABNAAAA/wAAAP8AAADTAAAAhAAAAP8AAAD/AAAAFwAAAAAAAAAAAAAAAAAAADMAAAD/AAAASAAAAAAAAAAAPAAAAP8AAAD/AAAAFgAAAAAAAAAAAAAAKAAAAP8AAAD/AAAAAAAAAAAAAAAUAAAA/wAAAP8AAAALAAAAAAAAAADTAAAA/wAAAAIAAAAAAAAAAAAAAAAAAAAAAAAAagAAAP8AAAD/AAAAUQAAAP8AAAD/AAAAOgAAAAAAAAAAAAAAACsAAABQAAAAAAAAAAEAAAAKAAAAXwAAAAAAAAAAAAAAYwAAAP8AAAD/AAAA/wAAADQAAAAAAAAAAAAAAAAAAAAAAAAAAAAAAAAaAAAAZgAAAP8AAAD/AAAA/wAAABoAAAAAAAAAAAAAAFAAAAAAAAAAAAAAAEQAAAAjAAAAAAAAAAAAAAAATQAAAP8AAAD/AAAA0wAAAIQAAAD/AAAA/wAAABcAAAAAAAAAAAAAAAAAAAAzAAAA/wAAAEgAAAAAAAAAADwAAAD/AAAA/wAAABYAAAAAAAAAAAAAACgAAAD/AAAA/wAAAAAAAAAAAAAAFAAAAP8AAAD/AAAACwAAAAAAAAAA0wAAAP8AAAACAAAAAAAAAAAAAAAAAAAAAAAAAGoAAAD/AAAA/wAAAFEAAAD/AAAA/wAAADoAAAAAAAAAAAAAAAArAAAAUAAAAAAAAAABAAAACAAAABUAAAAAAAAAAAAAAGMAAAD/AAAA/wAAAP8AAAA0AAAAAAAAAACZCFeoko5+2QAAAABJRU5ErkJggg==;" vertex="1" parent="s-T4bHBDybExXTd7HbpU-1">
          <mxGeometry x="300" y="356" width="16" height="16" as="geometry" />
        </mxCell>
        <mxCell id="kAr-atC4ffAKpqcUeQYJ-33" value="" style="shape=image;verticalLabelPosition=bottom;labelBackgroundColor=default;verticalAlign=top;aspect=fixed;imageAspect=0;image=data:image/png,iVBORw0KGgoAAAANSUhEUgAAABAAAAAQCAYAAAAf8/9hAAAAAXNSR0IArs4c6QAAAAlwSFlzAAALEwAACxMBAJqcGAAAAAd0SU1FB9gFAQo7H/7Iu+wAAAAZdEVYdENvbW1lbnQAQ3JlYXRlZCB3aXRoIEdJTVBXgQ4XAAAEG0lEQVQ4EQEQBO/7AAAAAAAAAAAAAAAAAAAAAAAAAAAAAAAAAAAAAAAAAAAAAAAAAAAAAAAAAAAAAAAAAAAAAAAAAAAAAAAAAAAAAAAAAAAAAAAAAAAAAAAAAAAAAAAAAAAAAAAAAAAAAAAAAAAAAAAAAAAAAAAAAAAAAAAAAAAAAAAAAAAAAAAAAAAAAAAAAAAAAAAAAAAAAAAAAAAAAAAAAAAAAAAAAAAAAAAAAAAAAAAAAAAAAAAAAAAAAAAAAAAAAAAAAAAAAAAAAAAAAAAAAAAAAAAAAAAAAAAAAAAAAAAAAAAAAAAAAAAAAAAAAAAAAAAAAAAAAAAAAAAAAAAAAAAAAAAAAAAAAAAAAAAAAAAAAAAAAAAAAAAAAAAAAAAAAAAAAAAAAAAAAAAAAAAAAAAAAAAAAAAAAAAAAAAAAAAAAAAAAAAAAAAAAAAAAAAAAAAAAAAAAAAAAAAAAAAAAAAAAAAAAAAAAAAAAAAAAAAAAAAAAAAAAAAAAAAAAAAAAAAAAAAAAAAAAAAAAAAAAAAAAAAAAAAAAAAAAAAAAAAAAAAAAAAAAAAAAAAAAAAAAAAAAAAAAAAAAAAAAAAAAAAAAAAAAAAAAAAAAAAAAAABAAAAAAAAAP8AAAAAAAAAAAAAAAAAAAAAAAAAAAAAAAAAAAAAAAAAAAAAAAAAAAAAAAAAAAAAAAAAAAAAAAAAAQIAAAAAAAAAAAAAAAAAAAAAAAAAAAAAAAAAAAAAAAAAAAAAAAAAAAAAAAAAAAAAAAAAAAAAAAAAAAAAAAAAAAAAAAAAAAAAAAAAAAAAAAAAAAAAAAAAAAAAAAAAAAAAAAAAAAAAAAAAAAAAAAAAAAAAAAAAAAAAAAAAAAAAAAAAAAAAAAAAAAAAAAAAAAAAAAAAAAAAAAAAAAAAAAAAAAAAAAAAAAAAAAAAAAAAAAAAAAAAAAAAAAAAAAAAAAAAAAAAAAAAAAAAAAAAAAAAAAAAAAAAAAAAAAAAAAAAAAAAAAAAAAAAAAAAAAAAAAAAAAAAAAAAAAAAAAAAAAAAAAAAAAAAAAAAAAAAAAAAAAAAAAAAAAAAAAAAAAAAAAAAAAAAAAAAAAAAAAAAAAAAAAAAAAAAAAAAAAAAAAAAAAAAAAAAAAAAAAAAAAAAAAAAAAAAAAAAAAAAAAAAAAAAAAAAAAAAAAAAAAAAAAAAAAAAAAAAAAAAAAAAAAAAAAAAAAAAAAAAAAAAAAAAAAAAAAAAAAAAAAAAAAAAAAAAAAAAAAAAAAAAAAAAAAAAAAAAAAAAAAAAAAAAAAAAAAAAAAAAAAAAAAAAAAAAAAAAAAAAAAAAAAAAAAAAAAAAAAAAAAAAAAAAAAAAAAAAAAAAAAAAAAAAAAAAAAAAAAAAAAAAAAAAAAAAAABLTwEEmSuN1wAAAABJRU5ErkJggg==;" vertex="1" parent="s-T4bHBDybExXTd7HbpU-1">
          <mxGeometry x="310" y="374" width="16" height="16" as="geometry" />
        </mxCell>
        <mxCell id="kAr-atC4ffAKpqcUeQYJ-10" value="" style="shape=image;verticalLabelPosition=bottom;labelBackgroundColor=default;verticalAlign=top;aspect=fixed;imageAspect=0;image=data:image/png,iVBORw0KGgoAAAANSUhEUgAAABAAAAAQCAYAAAAf8/9hAAAAAXNSR0IArs4c6QAAAAlwSFlzAAALEwAACxMBAJqcGAAAAAd0SU1FB9gFAQomNK0YLrAAAAAZdEVYdENvbW1lbnQAQ3JlYXRlZCB3aXRoIEdJTVBXgQ4XAAAEG0lEQVQ4EQEQBO/7AAAAAAAAAAAAAAAAAAAAAAAAAAAAAAAAAAAAAAAAAAAAAAAAAAAAAAAAAAAAAAAAAAAAAAAAAAAAAAAAAAAAAAABAAAAAAAAAP8AAAAAAAAAAAAAAAAAAAAAAAAAAAAAAAAAAAAAAAAAAAAAAAAAAAAAAAAAAAAAAAAAAAAAAAAAAQAAAAAAAAAA/wAAAAAAAAAAAAAAAAAAAAAAAAAAAAAAAAAAAAAAAAAAAAAAAAAAAAAAAAAAAAAAAAAAAP8AAAAAAgAAAAAAAAAAAAAAAAAAAAAAAAAAAAAAAAAAAAAAAAAAAAAAAAAAAAAAAAAAAAAAAAAAAAAAAAAAAAAAAAAAAAACAAAAAAAAAAAAAAAAAAAAAAAAAAAAAAAJAAAAeAAAAP8AAADkAAAAeAAAAAkAAAAAAAAAAAAAAAAAAAAAAAAAAAAAAAAAAAAA/wAAAAAAAAAAAAAACQAAAOAAAAD/AAAA/wAAAP8AAAD/AAAA4AAAAAkAAAAAAAAAAAAAAP8AAAAAAAAAAAAAAAD/AAAAAAAAAAAAAAB4AAAA/wAAAP8AAAD/AAAA/wAAAP8AAAD/AAAAeAAAAAAAAAAAAAAA/wAAAAAAAAAAAAAAAP8AAAAAAAAAAAAAAOQAAAD/AAAA/wAAAP8AAAD/AAAA/wAAAP8AAADkAAAAAAAAAAAAAAD/AAAAAAIAAAAAAAAAAAAAAAAAAAAAAAAAAAAAAAAAAAAAAAAAAAAAAAAAAAAAAAAAAAAAAAAAAAAAAAAAAAAAAAAAAAAAAgAAAAAAAAAAAAAAAAAAAAAAAACUAAAAAAAAAAAAAAAAAAAAAAAAAAAAAAAAAAAAlAAAAAAAAAAAAAAAAAAAAAAAAAAAAAAAAP8AAAAAAAAAAAAAAAkAAADgAAAA/wAAAP8AAAD/AAAA/wAAAOAAAAAJAAAAAAAAAAAAAAD/AAAAAAAAAAAAAAAA/wAAAAAAAAAAAAAAAAAAAAkAAAB4AAAA/wAAAOQAAAB4AAAACQAAAAAAAAAAAAAAAAAAAP8AAAAAAAAAAAAAAAD/AAAAAAAAAAAAAAAAAAAAAAAAAAAAAAAAAAAAAAAAAAAAAAAAAAAAAAAAAAAAAAAAAAAA/wAAAAACAAAAAAAAAAAAAAAAAAAAAAAAAAAAAAAAAAAAAAAAAAAAAAAAAAAAAAAAAAAAAAAAAAAAAAAAAAAAAAAAAAAAAAQAAAAAAAAAAAAAAP8AAAAAAAAAAAAAAAAAAAAAAAAAAAAAAAAAAAAAAAAAAAAAAAAAAAAAAAAAAAAAAAAAAAAAAAAAAAAAAAAAAAAAAAAAAAAAAAAAAAAAAAAAAAAAAAAAAAAAAAAAAAAAAAAAAAAAAAAAAAAAAAAAAAAAAAAAAADZ2DE7NmYJYgAAAABJRU5ErkJggg==;" vertex="1" parent="s-T4bHBDybExXTd7HbpU-1">
          <mxGeometry x="520" y="264" width="16" height="16" as="geometry" />
        </mxCell>
        <mxCell id="kAr-atC4ffAKpqcUeQYJ-11" value="" style="shape=image;verticalLabelPosition=bottom;labelBackgroundColor=default;verticalAlign=top;aspect=fixed;imageAspect=0;image=data:image/png,iVBORw0KGgoAAAANSUhEUgAAABAAAAAQCAYAAAAf8/9hAAAAAXNSR0IArs4c6QAAAAlwSFlzAAALEwAACxMBAJqcGAAAAAd0SU1FB9gFAQo7H/7Iu+wAAAAZdEVYdENvbW1lbnQAQ3JlYXRlZCB3aXRoIEdJTVBXgQ4XAAAEG0lEQVQ4EQEQBO/7AAAAAAAAAAAAAAAAAAAAAAAAAAAAAAAAAAAAAAAAAAAAAAAAAAAAAAAAAAAAAAAAAAAAAAAAAAAAAAAAAAAAAAAAAAAAAAAAAAAAAAAAAAAAAAAAAAAAAAAAAAAAAAAAAAAAAAAAAAAAAAAAAAAAAAAAAAAAAAAAAAAAAAAAAAAAAAAAAAAAAAAAAAAAAAAAAAAAAAAAAAAAAAAAAAAAAAAAAAAAAAAAAAAAAAAAAAAAAAAAAAAAAAAAAAAAAAAAAAAAAAAAAAAAAAAAAAAAAAAAAAAAAAAAAAAAAAAAAAAAAAAAAAAAAAAAAAAAAAAAAAAAAAAAAAAAAAAAAAAAAAAAAAAAAAAAAAAAAAAAAAAAAAAAAAAAAAAAAAAAAAAAAAAAAAAAAAAAAAAAAAAAAAAAAAAAAAAAAAAAAAAAAAAAAAAAAAAAAAAAAAAAAAAAAAAAAAAAAAAAAAAAAAAAAAAAAAAAAAAAAAAAAAAAAAAAAAAAAAAAAAAAAAAAAAAAAAAAAAAAAAAAAAAAAAAAAAAAAAAAAAAAAAAAAAAAAAAAAAAAAAAAAAAAAAAAAAAAAAAAAAAAAAAAAAAAAAAAAAAAAAAAAAABAAAAAAAAAP8AAAAAAAAAAAAAAAAAAAAAAAAAAAAAAAAAAAAAAAAAAAAAAAAAAAAAAAAAAAAAAAAAAAAAAAAAAQIAAAAAAAAAAAAAAAAAAAAAAAAAAAAAAAAAAAAAAAAAAAAAAAAAAAAAAAAAAAAAAAAAAAAAAAAAAAAAAAAAAAAAAAAAAAAAAAAAAAAAAAAAAAAAAAAAAAAAAAAAAAAAAAAAAAAAAAAAAAAAAAAAAAAAAAAAAAAAAAAAAAAAAAAAAAAAAAAAAAAAAAAAAAAAAAAAAAAAAAAAAAAAAAAAAAAAAAAAAAAAAAAAAAAAAAAAAAAAAAAAAAAAAAAAAAAAAAAAAAAAAAAAAAAAAAAAAAAAAAAAAAAAAAAAAAAAAAAAAAAAAAAAAAAAAAAAAAAAAAAAAAAAAAAAAAAAAAAAAAAAAAAAAAAAAAAAAAAAAAAAAAAAAAAAAAAAAAAAAAAAAAAAAAAAAAAAAAAAAAAAAAAAAAAAAAAAAAAAAAAAAAAAAAAAAAAAAAAAAAAAAAAAAAAAAAAAAAAAAAAAAAAAAAAAAAAAAAAAAAAAAAAAAAAAAAAAAAAAAAAAAAAAAAAAAAAAAAAAAAAAAAAAAAAAAAAAAAAAAAAAAAAAAAAAAAAAAAAAAAAAAAAAAAAAAAAAAAAAAAAAAAAAAAAAAAAAAAAAAAAAAAAAAAAAAAAAAAAAAAAAAAAAAAAAAAAAAAAAAAAAAAAAAAAAAAAAAAAAAAAAAAAAAAAAAAAAAAAAAAAAAAAAAAAAAABLTwEEmSuN1wAAAABJRU5ErkJggg==;" vertex="1" parent="s-T4bHBDybExXTd7HbpU-1">
          <mxGeometry x="520" y="280" width="16" height="16" as="geometry" />
        </mxCell>
        <mxCell id="kAr-atC4ffAKpqcUeQYJ-34" value="" style="shape=image;verticalLabelPosition=bottom;labelBackgroundColor=default;verticalAlign=top;aspect=fixed;imageAspect=0;image=data:image/png,iVBORw0KGgoAAAANSUhEUgAAABAAAAAQCAYAAAAf8/9hAAAAAXNSR0IArs4c6QAAAAlwSFlzAAALEwAACxMBAJqcGAAAAAd0SU1FB9gFAQojAh/VT2wAAAAZdEVYdENvbW1lbnQAQ3JlYXRlZCB3aXRoIEdJTVBXgQ4XAAAEG0lEQVQ4EQEQBO/7AAAAAAAAAAAAAAAAAAAAAAAAAAAAAAAAAAAAAAAAAAAAAAAAAAAAAAAAAAAAAAAAAAAAAAAAAAAAAAAAAAAAAAABAAAAAAAAAP8AAAAAAAAAAAAAAAAAAAAAAAAAAAAAAAAAAAAAAAAAAAAAAAAAAAAAAAAAAAAAAAAAAAAAAAAAAQAAAAAAAAAA/wAAAAAAAAAAAAAAAAAAAAAAAAAAAAAAAAAAAAAAAAAAAAAAAAAAAAAAAAAAAAAAAAAAAP8AAAAAAgAAAAAAAAAAAAAAAAAAAAAAAAAAAAAAAAAAAAAAAAAAAAAAAAAAAAAAAAAAAAAAAAAAAAAAAAAAAAAAAAAAAAACAAAAAAAAAAAAAAAAAAAAAAAAAAAAAAAAAAAAAAAAAAAAAAAAAAAAAAAAAAAAAAAAAAAAAAAAAAAAAAAAAAAAAAIAAAAAAAAAAAAAAAAAAAAAAAAAAAAAAAAAAAAAAAAAAAAAAAAAAAAAAAAAAAAAAAAAAAAAAAAAAAAAAAAAAAAABAAAAAAAAAAAAAAA/wAAAAAAAAAAAAAAAAAAAAAAAAAAAAAAAAAAAAAAAAAAAAAAAAAAAAAAAAAAAAAAAAAAAAAAAAAAAAAAAAAAAAAAAAAAAAAAAAAAAAAAAAAAAAAAAAAAAAAAAAAAAAAAAAAAAAAAAAAAAAAAAAAAAAAAAAAAAAAAAAAAAAAAAAAAAAAAAAAAAAAAAAAAAAAAAAAAAAAAAAAAAAAAAAAAAAAAAAAAAAAAAAAAAAAAAAAAAAAAAAAAAQAAAAAAAAD/AAAAAAAAAAAAAAAAAAAAAAAAAAAAAAAAAAAAAAAAAAAAAAAAAAAAAAAAAAAAAAAAAAAAAAAAAAEAAAAAAAAAAP8AAAAAAAAAAAAAAAAAAAAAAAAAAAAAAAAAAAAAAAAAAAAAAAAAAAAAAAAAAAAAAAAAAAD/AAAAAAIAAAAAAAAAAAAAAAAAAAAAAAAAAAAAAAAAAAAAAAAAAAAAAAAAAAAAAAAAAAAAAAAAAAAAAAAAAAAAAAAAAAAAAgAAAAAAAAAAAAAAAAAAAAAAAAAAAAAAAAAAAAAAAAAAAAAAAAAAAAAAAAAAAAAAAAAAAAAAAAAAAAAAAAAAAAACAAAAAAAAAAAAAAAAAAAAAAAAAAAAAAAAAAAAAAAAAAAAAAAAAAAAAAAAAAAAAAAAAAAAAAAAAAAAAAAAAAAAAAQAAAAAAAAAAAAAAP8AAAAAAAAAAAAAAAAAAAAAAAAAAAAAAAAAAAAAAAAAAAAAAAAAAAAAAAAAAAAAAAAAAAAAAAAAAAAAAAAAAAAAAAAAAAAAAAAAAAAAAAAAAAAAAAAAAAAAAAAAAAAAAAAAAAAAAAAAAAAAAAAAAAAAAAAAAAA8QAgR2veYygAAAABJRU5ErkJggg==;" vertex="1" parent="s-T4bHBDybExXTd7HbpU-1">
          <mxGeometry x="520" y="248" width="16" height="16" as="geometry" />
        </mxCell>
      </root>
    </mxGraphModel>
  </diagram>
</mxfile>
